<svg aria-hidden="true" style="position: absolute; width: 0; height: 0; overflow: hidden;" version="1.1" xmlns="http://www.w3.org/2000/svg" xmlns:xlink="http://www.w3.org/1999/xlink">
<!-- <svg xmlns="http://www.w3.org/2000/svg" xmlns:xlink="http://www.w3.org/1999/xlink" width="0" height="0"> -->
<defs>

<symbol id="icon-cart" viewBox="0 0 32 32">
<path fill="#fff" style="fill: var(--color1, #fff)" d="M0 1.389c0-0.583 0.473-1.056 1.056-1.056h3.167c0.484 0 0.907 0.33 1.024 0.8l0.856 3.423h24.509c0.316 0 0.616 0.142 0.816 0.386s0.281 0.566 0.219 0.876l-2.111 10.556c-0.095 0.474-0.5 0.823-0.982 0.847l-19.838 0.995 0.605 3.229h18.124c0.583 0 1.055 0.473 1.055 1.055s-0.473 1.056-1.055 1.056h-19c-0.508 0-0.944-0.362-1.037-0.861l-3.161-16.858-0.848-3.392h-2.342c-0.583 0-1.056-0.473-1.056-1.056zM6.55 6.667l1.773 9.455 19.304-0.968 1.697-8.487h-22.774zM10.556 23.556c-2.332 0-4.222 1.89-4.222 4.222s1.89 4.222 4.222 4.222c2.332 0 4.222-1.89 4.222-4.222s-1.89-4.222-4.222-4.222zM25.333 23.556c-2.332 0-4.222 1.89-4.222 4.222s1.89 4.222 4.222 4.222c2.332 0 4.222-1.89 4.222-4.222s-1.89-4.222-4.222-4.222zM10.556 25.667c-1.166 0-2.111 0.945-2.111 2.111s0.945 2.111 2.111 2.111c1.166 0 2.111-0.945 2.111-2.111s-0.945-2.111-2.111-2.111zM25.333 25.667c-1.166 0-2.111 0.945-2.111 2.111s0.945 2.111 2.111 2.111c1.166 0 2.111-0.945 2.111-2.111s-0.945-2.111-2.111-2.111z"></path>
</symbol>

<symbol id="icon-logo" viewBox="0 0 50 32">
<path fill="#fff" style="fill: var(--color1, #fff)" d="M12.526 15.116c0.273-1.090 0.614-1.897 1.022-2.421s0.794-0.789 1.157-0.798c0.16-0.013 0.32 0.015 0.466 0.083s0.27 0.173 0.363 0.304c0.203 0.309 0.308 0.673 0.3 1.043 0.012 0.425-0.111 0.842-0.353 1.191-0.11 0.174-0.262 0.316-0.443 0.415s-0.383 0.149-0.588 0.148c-0.045-0.001-0.089-0.013-0.128-0.035s-0.071-0.054-0.095-0.093c-0.023-0.038-0.036-0.082-0.038-0.127s0.008-0.089 0.028-0.129c0.13-0.278 0.192-0.583 0.18-0.89-0.008-0.267-0.119-0.398-0.335-0.393-0.159 0-0.327 0.119-0.506 0.345-0.21 0.283-0.379 0.594-0.503 0.924-0.181 0.485-0.309 0.988-0.383 1.501-0.1 0.64-0.14 1.288-0.12 1.936 0 0.084 0.030 0.437 0.088 1.061-0.267 0.024-0.438 0.036-0.513 0.038-0.474 0.012-0.819-0.063-1.031-0.225s-0.324-0.434-0.333-0.818c0-0.165 0.068-0.81 0.216-1.931 0.131-0.886 0.197-1.78 0.197-2.676 0-0.212-0.018-0.419-0.037-0.62-0.057-0.6 0.711-0.915 1.068-0.429v0.009c0.254 0.36 0.391 0.79 0.393 1.23 0.014 0.453-0.011 0.907-0.073 1.357z"></path>
<path fill="#fff" style="fill: var(--color1, #fff)" d="M20.166 11.901c0.122-0.006 0.244-0.001 0.365 0.017 0.061 0.014 0.115 0.048 0.154 0.097s0.062 0.108 0.064 0.171c0.002 0.062-0.016 0.124-0.052 0.175s-0.088 0.089-0.147 0.107c-0.749 0.253-1.386 0.76-1.801 1.433-0.5 0.735-0.762 1.606-0.75 2.495 0.024 1 0.341 1.493 0.95 1.478 0.366-0.009 0.69-0.217 0.972-0.624 0.5-0.738 0.835-1.881 1.004-3.427 0.129-1.222 0.406-2.012 0.83-2.373h0.008c0.062-0.055 0.139-0.090 0.221-0.1s0.165 0.004 0.239 0.041c0.074 0.037 0.135 0.096 0.175 0.168s0.057 0.155 0.050 0.237c-0.038 0.409-0.056 0.821-0.052 1.232 0.083 3.334-0.212 5.848-0.884 7.541s-1.809 2.557-3.409 2.593c-0.649 0.015-1.162-0.146-1.538-0.482-0.17-0.136-0.309-0.307-0.409-0.5s-0.157-0.406-0.169-0.624c-0.036-1.445 1.789-1.951 2.039-1.786 0.161 0.105 0.561 0.672 0.762 0.75-0.212 0.049-1.2 0.21-1.369 0.797-0.231 0.791 1.143 1.667 2.32 0.191 0.221-0.308 0.39-0.651 0.5-1.014 0.319-0.933 0.476-2.2 0.47-3.801-0.188 0.667-0.551 1.271-1.050 1.751-0.482 0.446-0.977 0.675-1.484 0.687-0.287 0.022-0.574-0.031-0.834-0.153s-0.485-0.308-0.653-0.542c-0.35-0.48-0.534-1.099-0.552-1.858-0.027-0.863 0.172-1.717 0.578-2.479 0.398-0.832 1.080-1.495 1.924-1.87 0.483-0.21 1.004-0.321 1.531-0.329z"></path>
<path fill="#fff" style="fill: var(--color1, #fff)" d="M25.709 16.495c-0.006 0.333 0.077 0.662 0.242 0.951 0.062 0.111 0.153 0.203 0.264 0.266s0.237 0.092 0.365 0.087c0.392-0.009 0.759-0.247 1.101-0.714 0.377-0.54 0.651-1.145 0.807-1.784 0.188-0.668 0.278-1.359 0.267-2.053-0.011-0.411-0.029-0.773-0.057-1.085-0.007-0.065 0.001-0.131 0.021-0.193s0.054-0.12 0.097-0.169 0.097-0.088 0.157-0.115c0.060-0.027 0.124-0.041 0.19-0.042 0.425-0.011 0.748 0.060 0.968 0.213 0.221 0.15 0.336 0.435 0.347 0.843 0 0.157-0.085 0.803-0.254 1.939-0.153 0.899-0.23 1.809-0.233 2.721 0.005 0.219 0.025 0.437 0.059 0.653 0.021 0.123 0.003 0.25-0.053 0.361s-0.146 0.203-0.257 0.259c-0.111 0.057-0.238 0.076-0.361 0.055s-0.237-0.080-0.323-0.17l-0.018-0.021c-0.3-0.348-0.459-0.854-0.476-1.522 0-0.117 0.009-0.342 0.034-0.677-0.178 0.75-0.581 1.428-1.154 1.943-0.564 0.5-1.123 0.756-1.676 0.767-0.255 0.014-0.51-0.032-0.745-0.133s-0.442-0.257-0.606-0.453c-0.348-0.4-0.531-0.981-0.549-1.744-0.020-0.755 0.1-1.506 0.353-2.218 0.24-0.699 0.642-1.33 1.173-1.843 0.476-0.486 1.121-0.768 1.801-0.788h0.012c0.089 0 0.176 0.028 0.248 0.080s0.127 0.125 0.155 0.209c0.029 0.084 0.030 0.175 0.004 0.26s-0.077 0.16-0.148 0.214c-0.439 0.356-0.799 0.799-1.058 1.301-0.457 0.791-0.697 1.688-0.698 2.601z"></path>
<path fill="#fff" style="fill: var(--color1, #fff)" d="M36.806 11.369c0.491-0.012 0.847 0.131 1.067 0.429 0.221 0.3 0.336 0.71 0.35 1.23-0.005 0.738-0.069 1.475-0.191 2.203-0.117 0.682-0.181 1.372-0.194 2.063 0.011 0.429 0.072 0.741 0.186 0.933 0.136 0.215 0.331 0.387 0.563 0.494-0.108 0.011-0.263 0.018-0.462 0.024-0.7 0.017-1.201-0.079-1.501-0.288s-0.458-0.584-0.474-1.125c0.024-0.609 0.093-1.215 0.205-1.814 0.124-0.665 0.192-1.34 0.203-2.017-0.013-0.551-0.186-0.821-0.521-0.813-0.191 0-0.405 0.123-0.641 0.354-0.271 0.277-0.499 0.593-0.678 0.936-0.245 0.476-0.422 0.983-0.525 1.508-0.136 0.598-0.198 1.211-0.186 1.825 0.009 0.335 0.024 0.623 0.045 0.861 0.006 0.064-0.001 0.128-0.020 0.189s-0.051 0.118-0.093 0.166-0.094 0.088-0.151 0.116c-0.058 0.028-0.121 0.044-0.185 0.046h-0.008c-0.475 0.012-0.819-0.063-1.032-0.224s-0.324-0.434-0.332-0.818c0-0.167 0.072-0.811 0.215-1.933 0.132-0.886 0.198-1.78 0.198-2.676 0-0.212-0.018-0.419-0.038-0.62-0.059-0.6 0.711-0.915 1.067-0.429l0.007 0.011c0.251 0.35 0.388 0.769 0.393 1.2 0.005 0.531-0.032 1.061-0.113 1.586 0.227-0.887 0.653-1.711 1.247-2.408 0.573-0.662 1.106-0.999 1.598-1.011z"></path>
<path fill="#fff" style="fill: var(--color1, #fff)" d="M41.961 11.411c-0.065-0.051-0.137-0.092-0.215-0.12-0.141-0.050-0.291-0.064-0.438-0.042s-0.287 0.080-0.407 0.169-0.215 0.206-0.279 0.341c-0.064 0.135-0.093 0.283-0.086 0.432 0.007 0.788-0.044 1.576-0.15 2.357-0.089 0.632-0.139 1.268-0.15 1.906 0.017 0.65 0.142 1.141 0.374 1.474s0.676 0.573 1.331 0.723c-0.105-0.222-0.165-0.719-0.18-1.49 0.002-0.987 0.082-1.972 0.24-2.946 0.176-1.194 0.262-1.853 0.258-1.978 0.001-0.393-0.099-0.669-0.299-0.827z"></path>
<path fill="#fff" style="fill: var(--color1, #fff)" d="M40.439 6.838c0.641 1.281 1.627 2.383 2.059 2.851 1.285-2.273 0.467-5.474-3.712-4.907-0.19 0.855-0.294 1.728-0.311 2.604 0.027 1.751 0.849 2.596 2.466 2.535 0.242-0.012 0.483-0.042 0.72-0.092-1.005-1.043-1.222-2.991-1.222-2.991z"></path>
<path fill="#fff" style="fill: var(--color1, #fff)" d="M45.562 15.545c0.035 1.393 0.461 2.078 1.277 2.057 0.346-0.018 0.678-0.139 0.954-0.348 0.251-0.179 0.47-0.398 0.648-0.648 0.041-0.059 0.1-0.105 0.168-0.13s0.142-0.028 0.212-0.010c0.070 0.019 0.133 0.058 0.179 0.114s0.075 0.124 0.081 0.196v0.008c-0.279 0.558-0.715 1.022-1.256 1.333-0.464 0.26-0.984 0.406-1.516 0.425-0.327 0.013-0.654-0.045-0.958-0.168s-0.578-0.309-0.804-0.547c-0.492-0.492-0.75-1.218-0.773-2.176-0.030-1.226 0.282-2.282 0.935-3.169s1.554-1.346 2.701-1.375c0.641-0.015 1.129 0.13 1.462 0.434 0.158 0.137 0.285 0.307 0.374 0.496s0.137 0.396 0.141 0.605c0.017 0.408-0.113 0.808-0.366 1.128l-0.017 0.020c-0.45 0.549-1.327 0.101-1.169-0.588 0.044-0.186 0.065-0.376 0.063-0.567-0.013-0.509-0.24-0.759-0.681-0.75-0.518 0.013-0.93 0.403-1.235 1.169-0.309 0.793-0.453 1.641-0.422 2.491z"></path>
<path fill="#fff" style="fill: var(--color1, #fff)" d="M49.711 24.223l-0.027-0.75-0.521 0.567c-0.478 0.52-1.063 0.929-1.715 1.201-0.679 0.279-1.392 0.466-2.12 0.554-1.48 0.194-3.001 0.117-4.53 0.024-1.563-0.102-3.132 0.022-4.659 0.368-0.769 0.181-1.511 0.462-2.206 0.837-0.469 0.29-0.913 0.618-1.328 0.981 8.241 3.879 14.269-0.588 14.269-0.588-3.789 3.678-11.013 3.963-17.371-0.864-1.171-0.878-2.306-1.801-3.451-2.722-0.641-0.512-1.288-1.022-1.951-1.52s-1.323-0.993-2.045-1.444c-0.363-0.232-0.739-0.441-1.127-0.627-0.401-0.197-0.822-0.352-1.256-0.462-0.46-0.121-0.938-0.164-1.412-0.128-0.244 0.023-0.486 0.068-0.722 0.135-0.237 0.072-0.359 0.189-0.6 0.384l0.531 0.9c0.549-0.492 1.27-0.618 2.014-0.486s1.48 0.47 2.17 0.872c0.692 0.423 1.361 0.883 2.005 1.378 0.653 0.489 1.298 0.992 1.939 1.501 1.285 1.017 2.562 2.053 3.902 3.027s3.301 2.453 4.825 3.19c1.523 0.737 2.321 0.973 4.011 1.252s3.693 0.018 5.348-0.458c1.632-0.469 3.104-1.377 4.256-2.625 0.565-0.61 1.017-1.315 1.336-2.083 0.314-0.765 0.463-1.587 0.438-2.413z"></path>
<path fill="#fff" style="fill: var(--color1, #fff)" d="M8.368 4.068c0 0 2.767 1.79 4.394 4.881 0.162-5.044-3.142-7.427-6.51-8.95 0 0-0.162 5.371 2.929 7.974 2.086 1.756 3.133 3.066 3.601 3.733-0.347-1.943-2.299-6.175-4.415-7.64z"></path>
<path fill="#fff" style="fill: var(--color1, #fff)" d="M13.575 11.066c0 0-0.651-3.417 2.116-4.719s5.371-0.162 5.371-0.162c0 0-1.139 4.394-6.51 5.045 0 0 0.977-2.767 3.742-3.58 0 0-3.742 0.651-4.719 3.417z"></path>
<path fill="#fff" style="fill: var(--color1, #fff)" d="M9.945 23.621c2.030-1.816 5.377-1.894 5.393-1.897-0.792-0.248-2.919-0.549-3.441-0.588-1.275-0.099-2.556 0.084-3.752 0.537-1.017 0.395-1.294 0.563-2.356 0.81s-3.010 0.483-3.645-0.405c0.641 2.251 2.925 3.936 5.27 3.873 1.702-0.047 3.265-0.891 4.754-1.717 0.845-0.467 2.030-1.31 2.869-1.859-1.693-0.030-3.469 0.434-5.093 1.245z"></path>
<path fill="#fff" style="fill: var(--color1, #fff)" d="M34.578 23.168l0.284-0.048v-1.996l-0.284-0.049v-0.221h1.959v0.609h-0.3l-0.029-0.339h-0.999v0.873h0.98v0.27h-0.98v0.852l0.284 0.048v0.221h-0.914v-0.221z"></path>
<path fill="#fff" style="fill: var(--color1, #fff)" d="M40.618 22.134c0.012 0.335-0.102 0.662-0.318 0.918-0.101 0.119-0.227 0.214-0.369 0.277s-0.297 0.094-0.453 0.089c-0.152 0.005-0.303-0.026-0.441-0.090s-0.26-0.158-0.355-0.276c-0.207-0.26-0.314-0.586-0.3-0.918v-0.036c-0.013-0.333 0.093-0.659 0.3-0.92 0.095-0.119 0.217-0.213 0.355-0.277s0.289-0.095 0.441-0.091c0.156-0.004 0.311 0.026 0.453 0.090s0.269 0.159 0.369 0.278c0.216 0.257 0.329 0.584 0.318 0.92v0.036zM40.274 22.093c0.011-0.257-0.063-0.511-0.212-0.722-0.067-0.091-0.156-0.164-0.258-0.213s-0.215-0.072-0.327-0.067c-0.109-0.004-0.218 0.020-0.316 0.069s-0.182 0.122-0.244 0.212c-0.141 0.213-0.212 0.465-0.201 0.72v0.041c-0.011 0.257 0.059 0.511 0.201 0.725 0.062 0.090 0.146 0.162 0.244 0.211s0.206 0.072 0.315 0.068c0.113 0.005 0.226-0.017 0.329-0.066s0.192-0.121 0.26-0.212c0.147-0.213 0.221-0.468 0.209-0.726v-0.041z"></path>
<path fill="#fff" style="fill: var(--color1, #fff)" d="M44.787 22.134c0.012 0.335-0.101 0.663-0.318 0.918-0.101 0.119-0.227 0.214-0.369 0.277s-0.297 0.094-0.453 0.089c-0.152 0.004-0.303-0.026-0.441-0.090s-0.26-0.158-0.356-0.276c-0.207-0.26-0.314-0.586-0.3-0.918v-0.036c-0.013-0.333 0.093-0.659 0.3-0.92 0.096-0.118 0.217-0.213 0.355-0.277s0.289-0.095 0.441-0.091c0.156-0.005 0.311 0.026 0.453 0.090s0.269 0.159 0.369 0.278c0.217 0.256 0.33 0.584 0.318 0.92v0.036zM44.444 22.093c0.011-0.257-0.063-0.511-0.211-0.722-0.068-0.091-0.157-0.164-0.259-0.212s-0.215-0.072-0.328-0.067c-0.109-0.004-0.217 0.020-0.315 0.069s-0.181 0.122-0.243 0.212c-0.142 0.213-0.212 0.465-0.201 0.72v0.041c-0.013 0.257 0.058 0.511 0.201 0.725 0.062 0.090 0.146 0.162 0.243 0.211s0.206 0.072 0.315 0.068c0.113 0.005 0.227-0.017 0.329-0.066s0.192-0.121 0.26-0.212c0.147-0.213 0.22-0.468 0.209-0.726v-0.041z"></path>
<path fill="#fff" style="fill: var(--color1, #fff)" d="M47.759 20.854c0.146-0.008 0.293 0.014 0.429 0.066s0.261 0.132 0.365 0.235 0.185 0.227 0.238 0.364c0.053 0.137 0.076 0.283 0.069 0.429v0.347c0.007 0.146-0.016 0.292-0.069 0.429s-0.134 0.261-0.238 0.364c-0.104 0.103-0.228 0.183-0.365 0.235s-0.283 0.074-0.429 0.066h-1.061v-0.221l0.284-0.048v-1.996l-0.284-0.049v-0.221h1.061zM47.324 21.124v1.996h0.435c0.104 0.005 0.208-0.013 0.304-0.053s0.182-0.101 0.252-0.178c0.14-0.168 0.213-0.382 0.203-0.6v-0.35c0.008-0.215-0.064-0.425-0.203-0.59-0.070-0.078-0.155-0.138-0.252-0.178s-0.2-0.058-0.304-0.053l-0.435 0.006z"></path>
<path fill="#fff" style="fill: var(--color1, #fff)" d="M6.197 9.93c0.985 0.122 1.9 0.571 2.601 1.274-1.666-4.287-5.503-3.776-7.653-0.674-2.206 3.181-1.273 9.275 3.237 9.166 0.635-0.009 1.26-0.153 1.835-0.422 0.528-0.242 0.999-0.592 1.382-1.028 0.375-0.439 0.679-0.934 0.9-1.468 0.3-0.69 0.495-1.422 0.579-2.17 0.27-3.529-2.881-4.679-2.881-4.679zM6.995 16.082c-0.17 0.706-0.493 1.365-0.947 1.931-0.434 0.524-0.943 0.793-1.526 0.807-0.7 0.017-1.232-0.304-1.594-0.962s-0.556-1.509-0.582-2.551c-0.016-0.77 0.107-1.536 0.365-2.261 0.231-0.699 0.612-1.338 1.118-1.873 0.483-0.5 1.002-0.757 1.556-0.77s0.998 0.237 1.333 0.75c0.335 0.516 0.517 1.358 0.545 2.526 0.023 0.808-0.066 1.615-0.266 2.398l-0.002 0.005z"></path>
</symbol>

<symbol id="icon-btn" viewBox="0 0 108 32">
<path fill="#fff" style="fill: var(--color1, #fff); stroke: var(--color1, #fff)" opacity="0.2" stroke="#fff" stroke-linejoin="miter" stroke-linecap="butt" stroke-miterlimit="4" stroke-width="0.6154" d="M0.615 0.615h76.308c16.993 0 30.769 13.776 30.769 30.769v0h-76.308c-16.993 0-30.769-13.776-30.769-30.769v0z"></path>
</symbol>




<symbol id="icon-search" viewBox="0 0 32 32">
<path d="M19.427 20.427c-1.39 0.99-3.090 1.573-4.927 1.573-4.694 0-8.5-3.806-8.5-8.5s3.806-8.5 8.5-8.5c4.694 0 8.5 3.806 8.5 8.5 0 1.837-0.583 3.537-1.573 4.927l5.585 5.585c0.55 0.55 0.546 1.431-0 1.976l-0.023 0.023c-0.544 0.544-1.431 0.546-1.976 0l-5.585-5.585zM14.5 20c3.59 0 6.5-2.91 6.5-6.5s-2.91-6.5-6.5-6.5c-3.59 0-6.5 2.91-6.5 6.5s2.91 6.5 6.5 6.5v0z"></path>
</symbol>


<symbol id="icon-menu" viewBox="0 0 32 32"><path fill="#fff" stroke="#fafafa" stroke-linecap="round" stroke-linejoin="round" stroke-width="2.286" d="M4.001 11.336h24.006M4.001 20.671h24.006" style="stroke:var(--color1, #fafafa)"/></symbol>

<symbol id="icon-leaf" viewBox="0 0 40 32">
<path fill="#8fb339"  d="M6.712 10.152c0 0 6.953 4.468 11.041 12.182 0.407-12.598-7.888-18.533-16.358-22.334 0 0-0.407 13.403 7.361 19.9 5.241 4.381 7.873 7.651 9.050 9.317-0.871-4.85-5.777-15.41-11.094-19.065z"></path>
<path fill="#8fb339"  d="M19.796 27.615c0 0-1.637-8.516 5.317-11.778s13.496-0.404 13.496-0.404-2.862 10.965-16.358 12.59c0 0 2.455-6.906 9.404-8.935 0 0.011-9.404 1.625-11.859 8.527z"></path>
</symbol>

<symbol id="icon-basket" viewBox="0 0 31 32">
<path fill="#8fb339" style="fill: var(--color1, #8fb339); stroke: var(--color2, #fff9ef)" stroke="#fff9ef" stroke-linejoin="miter" stroke-linecap="butt" stroke-miterlimit="4" stroke-width="0.3797" d="M27.695 20.658h-0.19v7.36c0 2.095-1.698 3.793-3.793 3.793h-14.339c-2.095 0-3.793-1.698-3.793-3.793v-7.36h-0.19c-0.775 0-1.403-0.628-1.403-1.403v-1.593c0-0.775 0.628-1.403 1.403-1.403h22.305c0.775 0 1.403 0.628 1.403 1.403v1.593c0 0.775-0.628 1.403-1.403 1.403zM6.983 20.658h-0.19v7.36c0 1.425 1.155 2.579 2.58 2.579h14.339c1.425 0 2.58-1.155 2.58-2.579v-7.36h-19.308zM5.39 17.471h-0.19v1.973h22.685v-1.973h-22.495zM10.169 22.631c0.335 0 0.607 0.272 0.607 0.607v4.78c0 0.335-0.272 0.607-0.607 0.607s-0.607-0.272-0.607-0.607v-4.78c0-0.335 0.272-0.607 0.607-0.607zM13.356 22.631c0.335 0 0.607 0.272 0.607 0.607v4.78c0 0.335-0.272 0.607-0.607 0.607s-0.607-0.272-0.607-0.607v-4.78c0-0.335 0.272-0.607 0.607-0.607zM16.542 22.631c0.335 0 0.607 0.272 0.607 0.607v4.78c0 0.335-0.272 0.607-0.607 0.607s-0.607-0.272-0.607-0.607v-4.78c0-0.335 0.272-0.607 0.607-0.607zM19.729 22.631c0.335 0 0.607 0.272 0.607 0.607v4.78c0 0.335-0.272 0.607-0.607 0.607s-0.607-0.272-0.607-0.607v-4.78c0-0.335 0.272-0.607 0.607-0.607zM22.915 22.631c0.335 0 0.607 0.272 0.607 0.607v4.78c0 0.335-0.272 0.607-0.607 0.607s-0.607-0.272-0.607-0.607v-4.78c0-0.335 0.272-0.607 0.607-0.607z"></path>
<path fill="#8fb339" style="fill: var(--color1, #8fb339)" d="M7.593 9.877l-4.377-7.582c-0.053-0.094-0.138-0.165-0.24-0.201s-0.213-0.032-0.312 0.009c-0.099 0.041-0.18 0.117-0.228 0.213s-0.058 0.207-0.029 0.311l0.913 3.493-2.571-2.536c-0.076-0.074-0.176-0.119-0.282-0.125s-0.211 0.026-0.295 0.091c-0.084 0.065-0.142 0.158-0.163 0.262s-0.003 0.213 0.049 0.305l4.413 7.643c-0.13 0.346-0.21 0.71-0.236 1.079-0.009 0.116 0.029 0.232 0.105 0.32s0.184 0.144 0.3 0.153c0.019 0.001 0.038 0.002 0.057 0 0.107-0.005 0.208-0.048 0.285-0.123s0.124-0.174 0.132-0.281c0.068-0.857 0.461-1.551 1.080-1.909 1.125-0.649 2.704-0.066 3.677 1.296l-1.427 0.824c-0.101 0.058-0.175 0.155-0.205 0.268s-0.014 0.233 0.044 0.335c0.058 0.101 0.155 0.175 0.268 0.206s0.233 0.015 0.334-0.044l1.412-0.816c0.329 0.753 1.046 2.447 1.871 4.411l-0.53 0.306c-0.101 0.058-0.175 0.155-0.205 0.268s-0.014 0.233 0.044 0.335c0.059 0.101 0.155 0.175 0.268 0.206s0.233 0.015 0.334-0.044l0.434-0.251c0.184 0.482 0.753 1.483 0.557 2.011-0.231 0.622-1.299 0.766-2.031 1.228-0.262 0.116-0.377 0.269-0.582 0-0.895-1.174-1.787-2.349-2.553-3.362l1.589-0.917c0.101-0.058 0.175-0.155 0.205-0.268s0.014-0.233-0.044-0.335c-0.058-0.101-0.155-0.175-0.268-0.206s-0.233-0.015-0.334 0.044l-1.693 0.978c-0.939-1.243-1.597-2.122-1.677-2.248-0.255-0.439-0.432-0.919-0.52-1.419-0.017-0.105-0.072-0.201-0.155-0.269s-0.187-0.103-0.293-0.1l-0.052 0.004c-0.057 0.010-0.112 0.031-0.161 0.061s-0.092 0.071-0.125 0.118c-0.033 0.047-0.057 0.101-0.070 0.158s-0.014 0.115-0.004 0.172c0.105 0.602 0.317 1.181 0.625 1.71 0.212 0.368 5.262 7.076 5.262 7.076s0.229-1.017 4.194-1.869c-0.771-1.845-3.284-8.279-3.497-8.647-0.793-1.346-2.055-2.193-3.294-2.345zM5.751 10.234c-0.133 0.077-0.259 0.165-0.378 0.263l-1.287-4.933 2.512 4.351c-0.298 0.059-0.584 0.166-0.848 0.317l0.001 0.002zM4.217 9.558l-1.763-3.054 1.301 1.284 0.462 1.771z"></path>
<path fill="#8fb339" style="fill: var(--color1, #8fb339)" d="M30.041 6.588c-0.001-0.797-0.304-1.564-0.848-2.146s-1.287-0.936-2.081-0.99c-0.213-0.491-0.53-0.93-0.929-1.287s-0.87-0.622-1.381-0.779c-0.511-0.157-1.050-0.201-1.58-0.129s-1.038 0.258-1.489 0.545c-0.27-0.375-0.618-0.687-1.020-0.914s-0.849-0.363-1.31-0.399c-0.46-0.036-0.923 0.029-1.356 0.191s-0.825 0.416-1.149 0.745c-0.512-0.164-1.051-0.231-1.587-0.199-0.731 0.046-1.439 0.273-2.061 0.661s-1.137 0.925-1.5 1.563c-0.363 0.637-0.562 1.355-0.578 2.089s0.149 1.46 0.482 2.113c-0.321 0.369-0.552 0.808-0.676 1.282s-0.137 0.97-0.038 1.449c0.099 0.479 0.307 0.93 0.608 1.315s0.687 0.697 1.128 0.908c0 0.32 0.016 0.642 0.036 0.962 0.327 5.231 2.603 9.394 5.286 9.847 1.402 1.548 3.429 1.484 4.79-0.081 2.068-0.66 3.895-4.241 4.399-8.844 0.026-0.244 0.050-0.495 0.067-0.745 0.347-0.114 0.662-0.311 0.917-0.573s0.444-0.581 0.549-0.932c0.499-0.165 0.949-0.454 1.307-0.84s0.613-0.856 0.74-1.367c0.128-0.511 0.124-1.046-0.010-1.555s-0.395-0.976-0.758-1.357c0.029-0.176 0.042-0.354 0.042-0.533zM27.934 11.826c-0.050 0.29-0.188 0.557-0.396 0.765s-0.475 0.346-0.765 0.395c-0.096 0.016-0.183 0.064-0.248 0.136s-0.103 0.164-0.109 0.261c-0.022 0.342-0.050 0.684-0.087 1.018-0.353 3.227-1.325 5.668-2.399 7.013 0.584-1.5 0.873-3.098 0.851-4.708v-0.042c0.221-0.184 0.398-0.415 0.519-0.676s0.184-0.545 0.183-0.833c0.001-0.279-0.059-0.555-0.175-0.809 0.394-0.352 0.673-0.816 0.799-1.33s0.093-1.054-0.094-1.549c-0.187-0.495-0.519-0.922-0.954-1.224s-0.949-0.465-1.478-0.468c-0.116 0.001-0.231 0.009-0.345 0.026 0.225-0.536 0.322-1.117 0.284-1.697-0.008-0.138-0.024-0.275-0.048-0.411 0.268-0.405 0.448-0.862 0.529-1.342s0.059-0.97-0.062-1.441-0.34-0.91-0.642-1.291c-0.302-0.38-0.681-0.693-1.111-0.917l-0.048-0.139c0.363-0.243 0.777-0.398 1.209-0.455s0.873-0.013 1.286 0.127c0.413 0.141 0.788 0.375 1.097 0.684s0.542 0.685 0.682 1.099c0.030 0.087 0.087 0.161 0.162 0.213s0.165 0.079 0.256 0.077h0.072c0.605 0.001 1.184 0.241 1.612 0.669s0.669 1.009 0.67 1.614c-0 0.194-0.025 0.387-0.073 0.574-0.020 0.076-0.018 0.157 0.005 0.232s0.067 0.143 0.126 0.195c0.309 0.275 0.536 0.63 0.658 1.026s0.132 0.817 0.031 1.219c-0.101 0.401-0.311 0.767-0.605 1.058s-0.663 0.495-1.065 0.59c-0.081 0.019-0.155 0.060-0.213 0.12s-0.097 0.136-0.113 0.217zM13.525 12.325c-0.001-0.087-0.029-0.172-0.079-0.243s-0.121-0.125-0.203-0.155c-0.373-0.136-0.705-0.365-0.963-0.667s-0.435-0.665-0.513-1.054c-0.078-0.39-0.054-0.793 0.068-1.171s0.341-0.718 0.633-0.987c0.073-0.067 0.121-0.158 0.134-0.257s-0.007-0.199-0.059-0.284c-0.32-0.524-0.498-1.122-0.519-1.736s0.117-1.223 0.401-1.768c0.284-0.545 0.703-1.007 1.217-1.341s1.107-0.53 1.719-0.568c0.073 0 0.149 0 0.224 0 0.44 0.001 0.876 0.083 1.286 0.242 0.084 0.033 0.177 0.038 0.265 0.015s0.166-0.073 0.224-0.143c0.272-0.335 0.632-0.587 1.040-0.728s0.846-0.166 1.266-0.071c0.421 0.095 0.806 0.304 1.114 0.606s0.526 0.684 0.629 1.103c0.015 0.064 0.045 0.123 0.087 0.173s0.095 0.090 0.155 0.117c0.357 0.159 0.673 0.397 0.926 0.695s0.435 0.65 0.533 1.028c0.098 0.379 0.11 0.774 0.035 1.158s-0.236 0.746-0.47 1.059c-0.037 0.050-0.063 0.107-0.076 0.168s-0.013 0.124 0.001 0.184c0.035 0.153 0.058 0.308 0.067 0.465 0.022 0.326-0.013 0.653-0.101 0.968-0.34-0.245-0.748-0.377-1.167-0.378-0.273-0.395-0.651-0.705-1.092-0.895s-0.925-0.252-1.399-0.179c-0.474 0.073-0.918 0.277-1.282 0.591s-0.632 0.723-0.775 1.181c-0.467 0.039-0.913 0.211-1.286 0.495s-0.657 0.669-0.818 1.11c-0.162 0.44-0.195 0.918-0.095 1.377s0.329 0.879 0.659 1.212c-0.128 0.202-0.214 0.428-0.252 0.664s-0.027 0.478 0.031 0.71c0.058 0.232 0.164 0.45 0.309 0.639s0.328 0.348 0.536 0.465c0 0.199-0.012 0.397-0.012 0.596 0 2.142 0.458 4.060 1.21 5.467-1.827-1.171-3.316-4.607-3.572-8.655-0.026-0.411-0.038-0.813-0.038-1.21zM20.781 23.687v-1.516l1.502-1.105c0.049-0.032 0.090-0.073 0.122-0.122s0.054-0.103 0.064-0.16c0.010-0.057 0.009-0.116-0.004-0.173s-0.038-0.11-0.072-0.157-0.078-0.086-0.128-0.116c-0.050-0.030-0.106-0.049-0.163-0.056s-0.116-0.003-0.172 0.013c-0.056 0.016-0.108 0.043-0.153 0.080l-0.992 0.727v-3.118l2.23-2.448c0.077-0.084 0.117-0.196 0.111-0.31s-0.056-0.221-0.14-0.298-0.195-0.117-0.309-0.111c-0.114 0.005-0.221 0.056-0.297 0.14l-1.587 1.749 0.014-4.372c0-0.056-0.011-0.112-0.032-0.164s-0.053-0.099-0.092-0.139c-0.040-0.040-0.087-0.072-0.139-0.093s-0.108-0.033-0.164-0.033c-0.113 0-0.222 0.045-0.302 0.125s-0.126 0.189-0.126 0.302v2.534l-1.169-1.566c-0.068-0.091-0.17-0.152-0.282-0.168s-0.227 0.013-0.318 0.081c-0.091 0.068-0.151 0.17-0.168 0.283s0.013 0.227 0.081 0.318l1.825 2.45 0.022 0.857v2.542l-1.323-0.578c-0.105-0.046-0.224-0.047-0.331-0.005s-0.192 0.125-0.238 0.231c-0.046 0.105-0.047 0.225-0.005 0.331s0.125 0.192 0.23 0.238l1.651 0.721v1.361c-0.002 0.025-0.002 0.050 0 0.076v1.653c-1.744-0.431-3.147-3.452-3.147-6.98 0-0.28 0-0.562 0.028-0.841 0.006-0.095-0.020-0.19-0.073-0.268s-0.132-0.138-0.222-0.167c-0.15-0.049-0.285-0.137-0.39-0.255s-0.178-0.262-0.21-0.417c-0.032-0.155-0.022-0.316 0.028-0.466s0.139-0.284 0.258-0.389c0.049-0.043 0.088-0.098 0.113-0.158s0.036-0.126 0.032-0.192c-0.005-0.066-0.026-0.131-0.060-0.188s-0.082-0.105-0.138-0.14c-0.284-0.193-0.499-0.471-0.613-0.795s-0.122-0.676-0.021-1.004 0.303-0.616 0.579-0.82c0.276-0.204 0.609-0.315 0.952-0.316h0.109c0.107 0.007 0.213-0.026 0.296-0.093s0.139-0.163 0.156-0.269c0.057-0.351 0.223-0.674 0.473-0.926s0.572-0.419 0.922-0.479c0.35-0.060 0.709-0.008 1.028 0.147s0.582 0.406 0.752 0.718c0.041 0.078 0.106 0.141 0.184 0.18s0.167 0.054 0.254 0.040c0.056-0.008 0.114-0.012 0.171-0.012 0.248 0.001 0.489 0.082 0.688 0.231s0.344 0.358 0.415 0.596c0.017 0.055 0.044 0.106 0.080 0.15s0.081 0.081 0.132 0.108c0.051 0.027 0.106 0.043 0.163 0.049s0.114-0.001 0.169-0.018c0.409-0.136 0.853-0.117 1.248 0.053s0.715 0.481 0.897 0.871 0.215 0.835 0.091 1.248c-0.123 0.413-0.394 0.767-0.761 0.993-0.051 0.031-0.095 0.072-0.129 0.121s-0.058 0.104-0.069 0.163c-0.010 0.058-0.008 0.118 0.005 0.176s0.039 0.112 0.074 0.16c0.091 0.122 0.157 0.261 0.192 0.41s0.040 0.302 0.013 0.452-0.084 0.293-0.169 0.42c-0.084 0.127-0.194 0.235-0.322 0.318-0.061 0.039-0.112 0.094-0.147 0.158s-0.053 0.136-0.052 0.21c0 0.081 0 0.161 0 0.242 0.008 3.529-1.381 6.538-3.127 6.974z"></path>
</symbol>

<symbol id="icon-eggs" viewBox="0 0 45 32">
<path stroke-linejoin="miter" stroke-linecap="butt" stroke-miterlimit="4" stroke-width="0.4085" d="M29.281 12.232v0l0.004-0.001c1.108-0.221 2.235-0.333 3.365-0.334 5.867 0 10.503 3.065 11.363 7.408l0 0c0.522 2.614-0.356 5.332-2.499 7.656-2.266 2.346-5.213 3.92-8.422 4.499v-0l-0.003 0.001c-1.109 0.219-2.236 0.331-3.366 0.334-5.867-0-10.507-3.081-11.362-7.414l-0-0c-0.516-2.608 0.387-5.331 2.5-7.657 2.268-2.342 5.213-3.913 8.422-4.493zM20.653 21.663c0.056-0.101 0.122-0.209 0.19-0.314 0.303-0.454 0.692-0.844 1.146-1.146s0.964-0.513 1.499-0.618c0.267-0.051 0.538-0.077 0.809-0.077 1.029 0.004 2.021 0.391 2.782 1.084s1.238 1.644 1.338 2.669c0.1 1.025-0.184 2.050-0.796 2.878s-1.511 1.398-2.52 1.601l-0.001 0c-0.265 0.055-0.535 0.083-0.806 0.082-0.358-0.002-0.715-0.048-1.061-0.139l-0.16 0.371c1.982 1.246 4.286 1.881 6.626 1.825 0.997-0.001 1.992-0.098 2.971-0.29h0.025l0.018-0.003c2.802-0.504 5.376-1.873 7.361-3.915l0 0 0.004-0.004c1.697-1.84 2.435-3.966 2.032-5.99l-0-0.001c-0.721-3.493-4.638-5.867-9.486-5.867h-0.001c-1.004 0.003-2.006 0.103-2.991 0.299-2.811 0.499-5.395 1.868-7.386 3.915l-0.001 0.001c-0.942 0.977-1.62 2.178-1.968 3.489l0.376 0.151zM22.431 22.419l-0.208 0.317h0.051c-0.073 0.153-0.128 0.315-0.165 0.481-0.063 0.288-0.068 0.586-0.014 0.877v0l0.001 0.003c0.101 0.509 0.375 0.968 0.775 1.299s0.903 0.512 1.422 0.515h0.002c0.147-0.001 0.294-0.017 0.438-0.047 0.542-0.113 1.022-0.422 1.35-0.867s0.48-0.997 0.426-1.548c-0.053-0.551-0.308-1.062-0.716-1.437s-0.939-0.585-1.492-0.591v-0l-0.005 0c-0.144 0.002-0.289 0.015-0.431 0.041v0l-0.003 0.001c-0.29 0.056-0.567 0.17-0.813 0.334s-0.456 0.377-0.619 0.624z"></path>
<path stroke-linejoin="miter" stroke-linecap="butt" stroke-miterlimit="4" stroke-width="0.4085" d="M11.889 5.103l0-0c0.192-0.357 0.477-0.655 0.824-0.863s0.744-0.318 1.149-0.319M11.889 5.103l0.991 2.846c0.299 0.166 0.636 0.253 0.977 0.252v0.204c0 0 0 0 0 0 0.498-0 0.982-0.166 1.376-0.471s0.675-0.733 0.798-1.216 0.084-0.993-0.114-1.45c-0.198-0.457-0.542-0.836-0.979-1.076l-0-0c-0.33-0.18-0.7-0.274-1.076-0.272M11.889 5.103c-0.279 0.52-0.341 1.129-0.175 1.696s0.55 1.044 1.066 1.329l-0.892-3.025zM13.862 3.921c-0 0-0 0-0 0h0.001c-0 0-0 0-0 0zM13.38 0.205l0.002-0c1.312-0.012 2.605 0.312 3.756 0.942 2.348 1.289 3.795 3.74 4.22 6.676s-0.179 6.34-1.921 9.497l-0 0c-2.575 4.687-6.952 7.687-11.127 7.687l-0.002 0c-1.312 0.009-2.604-0.315-3.757-0.942-2.338-1.278-3.854-3.695-4.262-6.827-0.341-3.243 0.345-6.511 1.962-9.344h0l0.002-0.003c2.575-4.692 6.952-7.687 11.127-7.687zM5.472 22.394l0.002 0.001c0.872 0.467 1.848 0.704 2.837 0.69 3.46-0.001 7.277-2.713 9.448-6.697 2.376-4.328 2.417-9.141 0.312-11.956l-0.353 0.198c0.251 0.63 0.344 1.312 0.27 1.986s-0.311 1.32-0.692 1.881-0.893 1.020-1.493 1.338c-0.599 0.317-1.267 0.483-1.945 0.483h-0c-0.721 0-1.429-0.187-2.055-0.543s-1.149-0.87-1.517-1.49c-0.368-0.62-0.568-1.325-0.581-2.045s0.162-1.432 0.508-2.064c0.304-0.549 0.728-1.023 1.239-1.388l-0.175-0.363c-2.817 0.818-5.595 3.185-7.345 6.38-1.423 2.476-2.033 5.336-1.744 8.177h-0l0.001 0.005c0.318 2.48 1.473 4.416 3.284 5.406z"></path>
</symbol>

<symbol id="icon-mushrooms" viewBox="0 0 28 32">
<path d="M22.564 2.222c-0.086-0.053-0.181-0.087-0.28-0.103s-0.201-0.011-0.299 0.014c-0.098 0.024-0.189 0.068-0.27 0.128s-0.148 0.136-0.199 0.222c-0.018 0.031-0.033 0.064-0.045 0.097-0.071 0.166-0.079 0.352-0.022 0.523s0.174 0.316 0.33 0.408c2.971 1.767 4.679 4.385 4.679 7.173v0.021c0 0.083 0 0.163 0 0.243v0.066c0 0.080 0 0.16 0 0.233v0.056c0 0.076 0 0.149-0.024 0.222v0.042c0 0.083-0.024 0.163-0.035 0.243v0.056c0 0.083-0.031 0.167-0.045 0.25s-0.038 0.167-0.059 0.247v0.049c-0.021 0.083-0.045 0.163-0.066 0.24v0.038l-0.077 0.24c-0.028 0.083-0.056 0.167-0.084 0.243l-0.017 0.038c-0.063 0.167-0.136 0.347-0.213 0.497v0.021c-0.859 1.812-2.518 3.416-4.662 4.514-0.062 0.033-0.119 0.074-0.171 0.122l-0.066 0.035h-0.038c-0.022 0-0.044-0.004-0.064-0.013s-0.039-0.021-0.054-0.036c-0.016-0.016-0.028-0.034-0.036-0.054s-0.013-0.042-0.013-0.064c-0-0.030 0.008-0.058 0.024-0.083 0.010-0.017 0.023-0.033 0.038-0.045 0.045-0.038 0.087-0.080 0.126-0.125 0.094-0.122 0.185-0.25 0.269-0.382v-0.017l0.080-0.139 0.031-0.059c0.077-0.076 0.137-0.167 0.175-0.267 0.030-0.074 0.046-0.153 0.049-0.233l0.021-0.056v-0.017l0.045-0.139v-0.028c0-0.042 0.024-0.083 0.035-0.128v-0.042l0.028-0.128v-0.063c0-0.031 0-0.063 0-0.083v-0.354c0-0.031 0-0.063 0-0.090v-0.080c0-0.059 0-0.118 0-0.177-0.001-1.068-0.428-2.092-1.187-2.847s-1.789-1.18-2.863-1.181c-0.541-0.002-1.077 0.106-1.575 0.316-0.184 0.077-0.329 0.224-0.405 0.407s-0.076 0.389-0 0.572l0.227 0.542c0.056 0.146 0.115 0.288 0.171 0.427l0.028 0.080 0.063 0.163c0.028 0.066 0.052 0.132 0.077 0.194l0.021 0.063c0.028 0.066 0.052 0.135 0.077 0.205l0.084 0.226 0.080 0.229c0.031 0.083 0.059 0.167 0.087 0.246l0.073 0.212c0.045 0.132 0.087 0.26 0.129 0.392l0.482 1.58 0.084 0.302v0.031c0.021 0.073 0.042 0.142 0.059 0.215l0.255 1.042c0.024 0.111 0.049 0.215 0.073 0.319l0.115 0.524c0.024 0.122 0.049 0.24 0.070 0.347 0.418 1.964 0.622 3.968 0.608 5.975 0 0 0 0.028 0 0.042-0.090 1.132-0.605 2.19-1.444 2.961s-1.939 1.199-3.081 1.199c-1.142 0-2.243-0.428-3.081-1.199s-1.354-1.828-1.444-2.961v-0.035c-0.015-2.009 0.188-4.013 0.604-5.979l0.073-0.347 0.171-0.5 0.073-0.312 0.258-1.042c0.017-0.073 0.038-0.142 0.056-0.219v-0.031l0.084-0.299v-0.024l0.066-0.226 0.409-1.33 0.133-0.392 0.241-0.694 0.084-0.226c0.024-0.069 0.049-0.139 0.077-0.212l0.189-0.49c0.056-0.142 0.112-0.285 0.175-0.438l0.080-0.198 0.108-0.26 0.028-0.069c0.077-0.182 0.077-0.387 0.002-0.57s-0.22-0.329-0.404-0.405c-0.498-0.21-1.034-0.317-1.575-0.316-1.074 0.001-2.104 0.426-2.863 1.181s-1.186 1.779-1.187 2.847c0 0.059 0 0.118 0 0.188v0.142c0 0.024 0 0.045 0 0.066v0.219c-0.001 0.017-0.001 0.035 0 0.052 0 0.035 0 0.069 0.017 0.104v0.066c0 0.038 0.017 0.076 0.028 0.111v0.056c0.010 0.041 0.021 0.082 0.035 0.122v0.038l0.038 0.122v0.038l0.021 0.052c0.005 0.131 0.045 0.257 0.115 0.368 0.033 0.048 0.070 0.092 0.112 0.132l0.021 0.045c0.026 0.046 0.050 0.088 0.073 0.125l0.017 0.024c0.084 0.136 0.174 0.267 0.272 0.392 0.036 0.046 0.077 0.088 0.122 0.125 0.017 0.011 0.032 0.027 0.042 0.045 0.014 0.026 0.023 0.054 0.024 0.083 0 0.038-0.012 0.074-0.036 0.104s-0.056 0.050-0.093 0.059l-0.164-0.080-0.154-0.080c-2.147-1.104-3.806-2.712-4.669-4.514v-0.021c-0.077-0.163-0.15-0.33-0.216-0.497v-0.031c-0.031-0.083-0.063-0.167-0.087-0.243v-0.028c-0.024-0.076-0.049-0.156-0.077-0.24v-0.028c-0.024-0.080-0.045-0.16-0.066-0.24v-0.049c-0.021-0.083-0.042-0.167-0.059-0.25s-0.031-0.167-0.045-0.243v-0.059c0-0.083-0.024-0.163-0.035-0.236v-0.052l-0.021-0.222v-0.028c0-0.080 0-0.16-0.017-0.24v-0.063c0-0.083 0-0.163 0-0.246v-0.017c0-5.076 5.587-9.201 12.448-9.201 1.402-0.003 2.799 0.174 4.155 0.528 0.176 0.046 0.363 0.027 0.526-0.054s0.291-0.217 0.361-0.384c0.015-0.030 0.026-0.061 0.035-0.094 0.026-0.095 0.033-0.195 0.020-0.293s-0.045-0.192-0.095-0.278c-0.050-0.085-0.116-0.16-0.195-0.22s-0.169-0.104-0.265-0.129c-1.482-0.386-3.007-0.581-4.539-0.58-7.682 0-13.967 4.805-13.967 10.711v0.021c0 0.097 0 0.194 0 0.292v0.069c0 0.101 0 0.201 0.021 0.309v0.049c0 0.090 0.017 0.181 0.028 0.264v0.059c0 0.101 0.028 0.198 0.045 0.299v0.066c0.017 0.101 0.035 0.201 0.056 0.302s0.045 0.201 0.070 0.302v0.056c0.026 0.097 0.054 0.198 0.084 0.302v0.031c0.028 0.094 0.056 0.187 0.087 0.278v0.031c0.035 0.101 0.070 0.198 0.108 0.299v0.038c0.077 0.198 0.164 0.399 0.258 0.597v0.021c1.002 2.111 2.898 3.965 5.332 5.208l0.178 0.090 0.307 0.149h0.045c0.098 0.044 0.204 0.067 0.311 0.069h0.136c0.294 0.001 0.584-0.076 0.839-0.222s0.467-0.357 0.614-0.61c0.147-0.254 0.224-0.541 0.223-0.834s-0.079-0.58-0.227-0.833c-0.086-0.15-0.196-0.286-0.325-0.403-0.045-0.056-0.085-0.115-0.122-0.177v-0.021l-0.049-0.087c-0.018-0.028-0.031-0.056-0.045-0.083 0-0.024-0.024-0.052-0.035-0.080v-0.017c0-0.028-0.024-0.056-0.031-0.076v-0.017c-0.011-0.022-0.021-0.045-0.028-0.069v-0.035c0-0.024-0.017-0.052-0.024-0.069v-0.035l-0.017-0.066v-0.049c0.001-0.017 0.001-0.035 0-0.052v-0.139l-0.031-0.302c0-0.038 0-0.076 0-0.111 0-0.67 0.268-1.313 0.745-1.787s1.123-0.74 1.797-0.74c0.087 0 0.171 0 0.258 0l-0.084 0.212-0.098 0.25-0.077 0.208-0.021 0.052c-0.028 0.073-0.052 0.146-0.080 0.215l-0.087 0.24-0.091 0.253-0.084 0.24-0.077 0.222c-0.045 0.135-0.091 0.271-0.133 0.403l-0.227 0.694c-0.024 0.076-0.045 0.156-0.070 0.229s-0.042 0.139-0.059 0.205l-0.14 0.479v0.021l-0.084 0.316v0.028c-0.021 0.076-0.042 0.153-0.059 0.229l-0.269 1.069-0.073 0.347-0.119 0.542c-0.028 0.125-0.052 0.247-0.077 0.368-0.439 2.079-0.651 4.199-0.632 6.323 0.038 1.567 0.69 3.057 1.818 4.151s2.641 1.708 4.217 1.708c1.576 0 3.090-0.613 4.217-1.708s1.78-2.585 1.818-4.151c0.021-2.124-0.192-4.244-0.636-6.323l-0.073-0.368-0.119-0.542c-0.024-0.111-0.049-0.222-0.077-0.347l-0.265-1.062c-0.021-0.076-0.042-0.153-0.059-0.226v-0.031c-0.028-0.104-0.056-0.208-0.087-0.319l-0.073-0.257-0.426-1.389c-0.042-0.135-0.087-0.271-0.136-0.41l-0.073-0.219c-0.031-0.083-0.059-0.17-0.091-0.253l-0.087-0.24-0.084-0.24c-0.028-0.069-0.056-0.142-0.080-0.212l-0.196-0.514-0.084-0.212c0.084 0 0.171 0 0.258 0 0.674 0.001 1.32 0.268 1.796 0.741s0.745 1.116 0.746 1.786c0.002 0.031 0.002 0.063 0 0.094v0.184l-0.021 0.153v0.024l-0.021 0.101c-0.004 0.025-0.010 0.049-0.017 0.073v0.035c0 0.024 0 0.049-0.024 0.076v0.021c0 0.028-0.017 0.056-0.031 0.090l-0.035 0.090c0 0.028-0.024 0.059-0.038 0.087-0.013 0.031-0.028 0.061-0.045 0.090-0.014 0.032-0.031 0.064-0.049 0.094l-0.042 0.076c-0.042 0.066-0.087 0.132-0.133 0.194-0.173 0.157-0.311 0.348-0.406 0.561s-0.145 0.443-0.146 0.675c0 0.442 0.177 0.866 0.491 1.178s0.741 0.488 1.185 0.488c0.055 0.003 0.109 0.003 0.164 0s0.108-0.011 0.161-0.024c0.088-0.017 0.174-0.041 0.258-0.073l0.066-0.028 0.164-0.080 0.035-0.017 0.066-0.042 0.147-0.104c2.395-1.253 4.256-3.087 5.238-5.177v-0.017c0.094-0.198 0.182-0.399 0.255-0.594l0.017-0.045c0.038-0.097 0.073-0.194 0.112-0.306 0.031-0.097 0.063-0.191 0.091-0.285v-0.038l0.084-0.299v-0.056c0.024-0.097 0.045-0.198 0.070-0.302s0.038-0.198 0.056-0.302v-0.066c0.017-0.097 0.031-0.194 0.045-0.302v-0.049c0-0.087 0.017-0.177 0.024-0.264v-0.059c0-0.101 0-0.201 0-0.302v-0.073c0-0.097 0-0.198 0-0.285v-0.024c0.066-3.323-1.917-6.413-5.349-8.458z"></path>
</symbol>

<symbol id="icon-beans" viewBox="0 0 57 32">
<path stroke-linejoin="miter" stroke-linecap="butt" stroke-miterlimit="4" stroke-width="0.817" d="M52.819 0.809c-0.050 0.13-0.075 0.27-0.072 0.41s0.033 0.278 0.089 0.406c0.056 0.128 0.136 0.244 0.236 0.341s0.218 0.173 0.347 0.224c1.13 0.449 1.69 1.193 1.617 2.16s-0.857 2.091-1.714 2.293c-1.865 0.434-3.019 1.972-3.623 3.111-3.107-1.603-6.817 1.1-7.348 1.479-2.011 1.235-4.105 2.324-6.267 3.259-0.247 0.107-0.443 0.306-0.549 0.555s-0.113 0.531-0.020 0.786v0.059c0.054 0.129 0.133 0.246 0.232 0.344s0.216 0.176 0.344 0.228 0.266 0.078 0.404 0.077c0.139-0.002 0.275-0.031 0.402-0.086 2.268-0.994 4.465-2.147 6.574-3.452l0.097-0.074c0.862-0.676 3.482-2.229 5.205-1.287 0.308 0.208 0.559 0.492 0.73 0.824s0.254 0.704 0.244 1.079c0.023 0.421-0.004 0.843-0.083 1.257-0.337-0.711-0.901-1.286-1.601-1.632s-1.494-0.443-2.256-0.276c-0.139 0.025-0.272 0.078-0.391 0.156s-0.22 0.18-0.299 0.299c-0.079 0.119-0.133 0.253-0.16 0.393s-0.025 0.285 0.005 0.425c0.030 0.14 0.087 0.273 0.169 0.389s0.186 0.216 0.306 0.292c0.12 0.075 0.254 0.125 0.394 0.147s0.282 0.015 0.42-0.021c0.248-0.054 0.505-0.037 0.744 0.049s0.449 0.238 0.607 0.438 0.258 0.442 0.289 0.696c0.030 0.255-0.010 0.513-0.116 0.746s-0.275 0.431-0.486 0.572c-0.212 0.141-0.458 0.22-0.711 0.228s-0.504-0.057-0.723-0.185c-0.219-0.129-0.399-0.317-0.518-0.543-0.146-0.217-0.365-0.373-0.617-0.437s-0.518-0.032-0.748 0.090-0.407 0.325-0.499 0.571c-0.091 0.246-0.090 0.517 0.003 0.762 0.34 0.639 0.865 1.156 1.506 1.482s1.364 0.443 2.073 0.337c-0.905 1.068-1.906 2.048-2.99 2.929 0.163-0.506 0.247-1.035 0.248-1.568-0.002-0.961-0.269-1.903-0.769-2.72s-1.215-1.477-2.065-1.905c-0.25-0.125-0.539-0.145-0.803-0.055s-0.483 0.283-0.606 0.536c-0.124 0.253-0.144 0.546-0.055 0.813s0.279 0.489 0.529 0.614c0.555 0.277 1.012 0.722 1.307 1.274s0.413 1.182 0.339 1.804c-0.074 0.623-0.337 1.206-0.753 1.671s-0.964 0.787-1.569 0.922c-0.605 0.136-1.236 0.078-1.807-0.166s-1.053-0.66-1.379-1.193c-0.327-0.533-0.482-1.155-0.444-1.781s0.266-1.225 0.654-1.713c0.175-0.22 0.256-0.502 0.226-0.783s-0.169-0.539-0.387-0.716c-0.218-0.177-0.496-0.26-0.773-0.229s-0.532 0.172-0.707 0.392c-0.557 0.7-0.923 1.536-1.062 2.423s-0.047 1.797 0.267 2.638c0.315 0.841 0.84 1.584 1.526 2.155s1.506 0.951 2.381 1.102c-2.484 1.114-5.071 1.978-7.723 2.579 0.017-0.101 0.017-0.205 0-0.306-0.029-0.137-0.084-0.267-0.163-0.382s-0.179-0.214-0.295-0.29c-0.116-0.076-0.246-0.128-0.382-0.153s-0.276-0.023-0.411 0.007c-0.754 0.138-1.532-0.026-2.17-0.458s-1.084-1.097-1.246-1.856c-0.162-0.759-0.026-1.552 0.379-2.211s1.047-1.134 1.79-1.323c0.379-0.083 0.771-0.090 1.153-0.020s0.746 0.216 1.072 0.429c0.326 0.213 0.608 0.489 0.828 0.812s0.376 0.687 0.458 1.072c0.055 0.256 0.203 0.483 0.413 0.637s0.469 0.223 0.727 0.195 0.496-0.152 0.67-0.347c0.173-0.195 0.269-0.448 0.27-0.711 0.007-0.075 0.007-0.151 0-0.227-0.183-0.865-0.584-1.668-1.165-2.33s-1.32-1.16-2.147-1.446c-0.827-0.286-1.713-0.35-2.572-0.186s-1.661 0.55-2.329 1.121c-0.668 0.571-1.178 1.308-1.48 2.138s-0.388 1.726-0.248 2.599c0.141 0.873 0.502 1.695 1.050 2.385s1.262 1.224 2.074 1.552c-0.75 0.108-1.5 0.197-2.245 0.261-1.214 0.105-2.402 0.155-3.564 0.148 0.521-0.352 0.965-0.808 1.305-1.341 0.476-0.743 0.728-1.61 0.726-2.495 0-0.331-0.034-0.662-0.102-0.986-0.025-0.141-0.077-0.276-0.154-0.396s-0.177-0.223-0.295-0.303-0.25-0.135-0.388-0.162c-0.139-0.027-0.282-0.025-0.42 0.005s-0.269 0.088-0.385 0.171c-0.116 0.083-0.214 0.188-0.288 0.31s-0.124 0.258-0.145 0.399-0.015 0.286 0.020 0.425c0.068 0.32 0.073 0.65 0.015 0.971s-0.178 0.629-0.353 0.903c-0.175 0.275-0.402 0.512-0.667 0.698s-0.565 0.317-0.88 0.386-0.641 0.074-0.959 0.016c-0.318-0.059-0.621-0.18-0.892-0.357s-0.505-0.407-0.689-0.676-0.313-0.572-0.381-0.891c-0.136-0.645-0.014-1.319 0.339-1.873s0.909-0.945 1.545-1.085c0.381-0.084 0.777-0.074 1.154 0.030 0.27 0.073 0.557 0.035 0.799-0.107s0.419-0.375 0.491-0.648c0.072-0.273 0.034-0.565-0.105-0.81s-0.37-0.424-0.64-0.497c-0.754-0.202-1.546-0.205-2.301-0.009s-1.449 0.584-2.014 1.127-0.984 1.224-1.217 1.978c-0.232 0.754-0.271 1.555-0.111 2.328 0.194 0.908 0.656 1.735 1.325 2.372-1.475-0.254-2.927-0.626-4.344-1.114 0.15-0.098 0.273-0.232 0.358-0.391s0.129-0.336 0.129-0.517c0.007-0.075 0.007-0.151 0-0.227-0.029-0.137-0.084-0.267-0.163-0.382s-0.179-0.213-0.295-0.289c-0.116-0.076-0.246-0.127-0.383-0.152s-0.276-0.021-0.411 0.009c-0.262 0.057-0.536 0.018-0.772-0.111s-0.419-0.339-0.515-0.593c-0.096-0.254-0.1-0.534-0.011-0.79s0.267-0.471 0.499-0.607c0.242-0.142 0.417-0.375 0.489-0.648s0.033-0.564-0.107-0.809c-0.14-0.245-0.37-0.423-0.64-0.495s-0.557-0.034-0.799 0.108c-0.592 0.345-1.060 0.873-1.336 1.506s-0.345 1.339-0.198 2.014c0.038 0.188 0.096 0.371 0.17 0.547-1.096-0.63-2.132-1.363-3.092-2.189-0.034-0.031-0.069-0.059-0.107-0.084-0.509-0.369-0.934-0.844-1.247-1.394s-0.505-1.16-0.565-1.792l3.472 0.261c8.426 0.738 16.914-0.13 25.024-2.559 0.133-0.040 0.256-0.105 0.364-0.194s0.197-0.197 0.262-0.321c0.066-0.123 0.107-0.259 0.12-0.398s0-0.28-0.040-0.414v-0.054c-0.091-0.255-0.275-0.466-0.513-0.588s-0.515-0.149-0.772-0.072c-7.849 2.311-16.050 3.147-24.196 2.465 0 0-0.034 0-0.049 0l-4.563-0.34c-0.263-0.021-0.523 0.059-0.731 0.223s-0.346 0.401-0.389 0.665c-0.609 3.767 2.143 5.917 2.625 6.243 5.356 4.605 13.221 6.716 22.166 5.917 7.251-0.626 14.862-3.21 19.385-6.578 4.869-3.605 7.674-7.855 7.674-11.469 0-0.158 0-0.316 0-0.493-0.044-0.741-0.249-1.463-0.599-2.115 0.292-0.671 1.115-2.268 2.513-2.594 1.758-0.414 3.194-2.224 3.34-4.211v-0.316c0-1.77-1.091-3.245-2.965-3.984-0.139-0.056-0.289-0.081-0.439-0.073s-0.296 0.048-0.429 0.117-0.25 0.167-0.343 0.286c-0.093 0.119-0.16 0.257-0.196 0.404z"></path>
</symbol>

<symbol id="icon-fruits" viewBox="0 0 28 32">
<path d="M14.073 31.388c1.065 0.394 2.192 0.598 3.33 0.603 3.14 0 6.11-1.507 8.145-4.156 0.055-0.072 0.096-0.153 0.119-0.24s0.029-0.177 0.016-0.267c-0.013-0.089-0.043-0.175-0.089-0.252s-0.108-0.145-0.181-0.2l-0.049-0.030c-0.147-0.091-0.323-0.124-0.494-0.094s-0.324 0.122-0.429 0.257c-1.77 2.293-4.334 3.616-7.030 3.616-4.078 0-7.744-3.065-8.926-7.456-0.023-0.087-0.064-0.169-0.119-0.241s-0.125-0.132-0.204-0.177c-0.079-0.046-0.167-0.075-0.258-0.087s-0.184-0.007-0.273 0.016c-0.089 0.023-0.172 0.062-0.246 0.117s-0.135 0.122-0.181 0.2c-0.046 0.078-0.077 0.164-0.089 0.253s-0.007 0.18 0.016 0.267c0.729 2.869 2.541 5.362 5.073 6.974-0.49 0.090-0.988 0.135-1.487 0.136-5.128 0-9.302-4.695-9.302-10.464s4.174-10.461 9.302-10.461c1.088-0.001 2.165 0.213 3.167 0.627l0.142 0.057 0.308 0.139c0.194 0.090 0.382 0.193 0.569 0.301 0.894 0.513 1.697 1.165 2.376 1.932 0.066 0.074 0.147 0.134 0.238 0.174s0.191 0.061 0.291 0.061c0.169 0.001 0.332-0.059 0.459-0.169 0.070-0.059 0.126-0.131 0.167-0.212s0.065-0.168 0.072-0.258c0.006-0.090-0.006-0.18-0.035-0.265s-0.076-0.164-0.136-0.232c-0.699-0.787-1.511-1.471-2.41-2.031 0.482-0.085 0.972-0.129 1.462-0.13 5.131 0 9.305 4.692 9.305 10.461 0.008 1.912-0.466 3.796-1.379 5.485-0.086 0.152-0.109 0.331-0.064 0.499s0.154 0.313 0.304 0.405c0.013 0.013 0.029 0.023 0.046 0.030 0.101 0.055 0.214 0.085 0.329 0.084 0.126-0 0.25-0.034 0.359-0.098s0.197-0.155 0.257-0.264c1.021-1.889 1.55-3.996 1.539-6.133 0-6.522-4.799-11.829-10.703-11.829-0.907-0.001-1.81 0.124-2.681 0.374 0.308-1.205 1.311-3.445 4.309-3.987 0.090-0.016 0.177-0.050 0.254-0.099s0.144-0.112 0.196-0.186c0.052-0.074 0.089-0.157 0.108-0.245s0.021-0.179 0.004-0.267c-0.017-0.088-0.051-0.173-0.101-0.248s-0.114-0.141-0.19-0.192c-0.076-0.051-0.161-0.087-0.25-0.106s-0.183-0.020-0.273-0.004c-1.199 0.194-2.32 0.707-3.241 1.483-0.597-2.064-2.306-4.858-5.848-4.858-0.996 0.017-1.982 0.196-2.918 0.53-0.14 0.047-0.261 0.137-0.346 0.256s-0.128 0.262-0.125 0.407c0 0.057 0.203 5.666 6.356 5.666 0.457-0.003 0.913-0.033 1.367-0.090-0.321 0.606-0.562 1.249-0.717 1.914-0.84-0.23-1.707-0.347-2.579-0.347-5.901 0-10.703 5.307-10.703 11.829s4.802 11.835 10.703 11.835c1.152-0.005 2.293-0.212 3.37-0.612zM12.651 5.47c-3.835 0-4.706-2.685-4.9-3.827 0.627-0.187 1.278-0.289 1.933-0.301 3.097 0 4.199 2.712 4.546 3.99-0.522 0.084-1.050 0.127-1.579 0.13v0.009z"></path>
</symbol>

<symbol id="icon-vegetables" viewBox="0 0 26 32">
<path d="M24.812 8.105c-0.002-1.058-0.394-2.075-1.097-2.847s-1.666-1.242-2.694-1.314c-0.276-0.652-0.686-1.234-1.202-1.707s-1.126-0.826-1.788-1.034c-0.662-0.208-1.36-0.266-2.045-0.171s-1.343 0.342-1.927 0.723c-0.349-0.498-0.8-0.912-1.321-1.213s-1.1-0.482-1.696-0.529-1.195 0.039-1.755 0.253c-0.56 0.214-1.068 0.552-1.488 0.988-0.663-0.217-1.36-0.306-2.055-0.264-0.946 0.061-1.863 0.362-2.668 0.877s-1.472 1.228-1.941 2.073c-0.47 0.846-0.727 1.798-0.749 2.772s0.193 1.937 0.624 2.804c-0.415 0.49-0.715 1.072-0.875 1.701s-0.177 1.287-0.049 1.923c0.128 0.636 0.397 1.234 0.787 1.745s0.889 0.924 1.46 1.205c0 0.425 0.021 0.852 0.046 1.276 0.424 6.941 3.37 12.466 6.842 13.067 0.878 0.994 1.921 1.564 3.051 1.566 1.171 0 2.25-0.614 3.149-1.675 2.676-0.875 5.042-5.628 5.694-11.735 0.033-0.324 0.064-0.657 0.087-0.989 0.449-0.152 0.856-0.412 1.187-0.76s0.574-0.772 0.711-1.236c0.646-0.219 1.229-0.602 1.692-1.114s0.793-1.136 0.958-1.814c0.165-0.678 0.161-1.388-0.013-2.064s-0.511-1.295-0.981-1.801c0.037-0.234 0.055-0.47 0.054-0.707zM22.084 15.057c-0.064 0.385-0.243 0.74-0.513 1.016s-0.615 0.459-0.99 0.525c-0.124 0.021-0.237 0.085-0.321 0.181s-0.134 0.218-0.141 0.347c-0.028 0.454-0.064 0.907-0.113 1.35-0.457 4.283-1.716 7.521-3.105 9.306 0.756-1.99 1.13-4.111 1.102-6.247v-0.055c0.285-0.245 0.515-0.551 0.672-0.897s0.238-0.723 0.237-1.105c0.001-0.37-0.076-0.736-0.226-1.073 0.511-0.467 0.871-1.083 1.034-1.765s0.121-1.399-0.121-2.056c-0.242-0.657-0.672-1.223-1.234-1.624s-1.229-0.617-1.913-0.62c-0.15 0.001-0.299 0.012-0.447 0.034 0.292-0.711 0.417-1.482 0.367-2.252-0.010-0.183-0.031-0.365-0.062-0.546 0.347-0.538 0.58-1.144 0.684-1.78s0.076-1.288-0.081-1.912-0.441-1.208-0.832-1.713c-0.391-0.505-0.881-0.919-1.439-1.217l-0.062-0.185c0.47-0.322 1.005-0.529 1.565-0.604s1.129-0.018 1.664 0.169 1.021 0.497 1.42 0.907c0.399 0.41 0.701 0.909 0.883 1.458 0.039 0.115 0.113 0.214 0.21 0.283s0.214 0.105 0.332 0.102h0.092c0.783 0.001 1.533 0.32 2.087 0.888s0.865 1.338 0.867 2.142c-0.001 0.257-0.033 0.513-0.095 0.762-0.025 0.101-0.023 0.208 0.007 0.308s0.086 0.19 0.163 0.259c0.4 0.365 0.694 0.836 0.851 1.362s0.171 1.085 0.040 1.617c-0.131 0.533-0.402 1.018-0.783 1.404s-0.858 0.656-1.379 0.783c-0.105 0.025-0.201 0.080-0.276 0.16s-0.125 0.18-0.146 0.288zM3.432 15.719c-0.002-0.115-0.037-0.228-0.102-0.322s-0.157-0.166-0.262-0.205c-0.483-0.18-0.912-0.485-1.247-0.885s-0.564-0.882-0.665-1.399c-0.101-0.517-0.070-1.052 0.089-1.554s0.441-0.953 0.819-1.31c0.095-0.089 0.156-0.21 0.174-0.341s-0.009-0.264-0.076-0.377c-0.414-0.696-0.645-1.489-0.672-2.304s0.152-1.623 0.519-2.346c0.367-0.723 0.91-1.336 1.576-1.78s1.432-0.704 2.225-0.754c0.095 0 0.193 0 0.29 0 0.569 0.001 1.134 0.11 1.664 0.322 0.109 0.044 0.229 0.051 0.342 0.021s0.215-0.097 0.289-0.189c0.352-0.444 0.818-0.778 1.346-0.966s1.095-0.22 1.639-0.095c0.544 0.125 1.044 0.404 1.443 0.805s0.681 0.907 0.815 1.463c0.020 0.084 0.059 0.163 0.113 0.23s0.123 0.12 0.2 0.155c0.462 0.211 0.871 0.527 1.198 0.923s0.563 0.862 0.69 1.365c0.127 0.502 0.143 1.028 0.045 1.537s-0.305 0.99-0.608 1.405c-0.048 0.066-0.082 0.142-0.099 0.222s-0.016 0.164 0.001 0.244c0.045 0.203 0.074 0.409 0.087 0.617 0.028 0.433-0.016 0.867-0.131 1.284-0.44-0.325-0.968-0.5-1.51-0.501-0.354-0.524-0.843-0.935-1.413-1.187s-1.198-0.335-1.812-0.238c-0.614 0.096-1.188 0.368-1.659 0.784s-0.818 0.959-1.003 1.567c-0.604 0.052-1.182 0.28-1.664 0.657s-0.85 0.888-1.059 1.473c-0.209 0.584-0.252 1.218-0.122 1.827s0.425 1.166 0.853 1.608c-0.166 0.268-0.277 0.568-0.326 0.881s-0.035 0.634 0.040 0.942c0.076 0.308 0.212 0.597 0.4 0.849s0.424 0.462 0.694 0.617c0 0.264-0.015 0.527-0.015 0.791 0 2.843 0.593 5.388 1.567 7.255-2.366-1.553-4.292-6.113-4.623-11.485-0.033-0.546-0.049-1.079-0.049-1.606zM12.825 30.795v-2.012l1.944-1.466c0.063-0.042 0.117-0.098 0.158-0.162s0.070-0.137 0.083-0.213c0.013-0.076 0.012-0.154-0.005-0.229s-0.049-0.146-0.093-0.209c-0.045-0.062-0.101-0.115-0.166-0.154s-0.137-0.065-0.211-0.074c-0.075-0.010-0.15-0.004-0.223 0.017s-0.14 0.057-0.198 0.106l-1.284 0.965v-4.138l2.887-3.249c0.099-0.112 0.151-0.26 0.144-0.411s-0.072-0.293-0.181-0.395c-0.109-0.102-0.253-0.155-0.4-0.148s-0.285 0.074-0.385 0.186l-2.055 2.321 0.018-5.802c0-0.075-0.014-0.149-0.041-0.218s-0.068-0.132-0.12-0.185c-0.051-0.053-0.112-0.095-0.179-0.124s-0.139-0.043-0.212-0.043c-0.147 0-0.287 0.060-0.391 0.166s-0.163 0.251-0.163 0.401v3.362l-1.513-2.078c-0.088-0.121-0.22-0.201-0.365-0.223s-0.294 0.017-0.412 0.108c-0.118 0.091-0.196 0.226-0.217 0.375s0.017 0.302 0.105 0.423l2.363 3.252 0.028 1.137v3.373l-1.713-0.767c-0.136-0.060-0.29-0.063-0.428-0.007s-0.249 0.166-0.308 0.306c-0.059 0.14-0.061 0.298-0.007 0.44s0.162 0.255 0.298 0.316l2.137 0.957v1.806c-0.003 0.033-0.003 0.067 0 0.1v2.194c-2.258-0.572-4.074-4.581-4.074-9.262 0-0.372 0-0.746 0.036-1.115 0.008-0.126-0.026-0.252-0.095-0.356s-0.171-0.182-0.288-0.221c-0.195-0.065-0.369-0.182-0.505-0.338s-0.23-0.348-0.271-0.553c-0.041-0.206-0.029-0.419 0.037-0.618s0.181-0.377 0.334-0.516c0.064-0.058 0.114-0.129 0.146-0.21s0.047-0.167 0.041-0.254c-0.006-0.088-0.033-0.174-0.078-0.249s-0.106-0.139-0.179-0.186c-0.368-0.256-0.646-0.625-0.793-1.055s-0.157-0.897-0.027-1.333c0.13-0.436 0.392-0.817 0.749-1.089s0.789-0.418 1.233-0.419h0.141c0.138 0.010 0.275-0.034 0.384-0.123s0.18-0.216 0.202-0.357c0.074-0.465 0.288-0.895 0.612-1.229s0.741-0.556 1.194-0.635c0.453-0.079 0.918-0.011 1.331 0.195s0.753 0.539 0.973 0.953c0.053 0.103 0.137 0.187 0.238 0.239s0.217 0.071 0.329 0.054c0.073-0.010 0.147-0.016 0.221-0.016 0.321 0.002 0.633 0.109 0.89 0.306s0.446 0.475 0.538 0.791c0.021 0.073 0.057 0.141 0.104 0.199s0.105 0.107 0.17 0.143c0.065 0.036 0.137 0.057 0.211 0.064s0.148-0.001 0.219-0.024c0.529-0.181 1.104-0.156 1.616 0.071s0.925 0.638 1.161 1.156c0.236 0.519 0.278 1.108 0.118 1.656s-0.51 1.017-0.985 1.318c-0.066 0.041-0.123 0.096-0.167 0.161s-0.075 0.139-0.090 0.216c-0.013 0.078-0.011 0.157 0.007 0.234s0.050 0.149 0.096 0.212c0.118 0.162 0.203 0.347 0.248 0.544s0.051 0.401 0.016 0.6c-0.035 0.199-0.109 0.389-0.218 0.557s-0.251 0.312-0.416 0.422c-0.080 0.052-0.145 0.125-0.19 0.21s-0.068 0.181-0.067 0.278c0 0.108 0 0.214 0 0.322 0.010 4.684-1.788 8.676-4.048 9.254z"></path>
</symbol>


<symbol id="basket" width="57" height="59" viewBox="0 0 57 59" fill="none">
<path d="M51.0625 38.0875H50.7125V38.4375V51.657C50.7125 55.5197 47.5811 58.65 43.7188 58.65H17.2812C13.4189 58.65 10.2875 55.5197 10.2875 51.657V38.4375V38.0875H9.9375C8.50846 38.0875 7.35 36.929 7.35 35.5V32.5625C7.35 31.1335 8.50846 29.975 9.9375 29.975H13.5122H13.5204H13.5286H13.5367H13.5449H13.5531H13.5612H13.5694H13.5775H13.5856H13.5937H13.6018H13.6099H13.618H13.626H13.6341H13.6421H13.6502H13.6582H13.6662H13.6742H13.6822H13.6902H13.6981H13.7061H13.714H13.722H13.7299H13.7378H13.7457H13.7536H13.7615H13.7693H13.7772H13.7851H13.7929H13.8007H13.8085H13.8164H13.8242H13.832H13.8397H13.8475H13.8553H13.863H13.8707H13.8785H13.8862H13.8939H13.9016H13.9093H13.917H13.9247H13.9323H13.94H13.9476H13.9552H13.9629H13.9705H13.9781H13.9857H13.9933H14.0008H14.0084H14.016H14.0235H14.031H14.0386H14.0461H14.0536H14.0611H14.0686H14.0761H14.0836H14.091H14.0985H14.1059H14.1134H14.1208H14.1282H14.1356H14.143H14.1504H14.1578H14.1652H14.1725H14.1799H14.1873H14.1946H14.2019H14.2093H14.2166H14.2239H14.2312H14.2385H14.2457H14.253H14.2603H14.2675H14.2748H14.282H14.2893H14.2965H14.3037H14.3109H14.3181H14.3253H14.3325H14.3397H14.3468H14.354H14.3612H14.3683H14.3754H14.3826H14.3897H14.3968H14.4039H14.411H14.4181H14.4252H14.4323H14.4393H14.4464H14.4534H14.4605H14.4675H14.4746H14.4816H14.4886H14.4956H14.5026H14.5096H14.5166H14.5236H14.5305H14.5375H14.5445H14.5514H14.5584H14.5653H14.5722H14.5792H14.5861H14.593H14.5999H14.6068H14.6137H14.6206H14.6275H14.6343H14.6412H14.648H14.6549H14.6617H14.6686H14.6754H14.6822H14.6891H14.6959H14.7027H14.7095H14.7163H14.7231H14.7298H14.7366H14.7434H14.7501H14.7569H14.7637H14.7704H14.7771H14.7839H14.7906H14.7973H14.804H14.8107H14.8174H14.8241H14.8308H14.8375H14.8442H14.8509H14.8575H14.8642H14.8709H14.8775H14.8842H14.8908H14.8974H14.9041H14.9107H14.9173H14.9239H14.9306H14.9372H14.9438H14.9504H14.9569H14.9635H14.9701H14.9767H14.9833H14.9898H14.9964H15.0029H15.0095H15.016H15.0226H15.0291H15.0356H15.0422H15.0487H15.0552H15.0617H15.0682H15.0747H15.0812H15.0877H15.0942H15.1007H15.1072H15.1136H15.1201H15.1266H15.133H15.1395H15.146H15.1524H15.1589H15.1653H15.1717H15.1782H15.1846H15.191H15.1975H15.2039H15.2103H15.2167H15.2231H15.2295H15.2359H15.2423H15.2487H15.2551H15.2615H15.2679H15.2742H15.2806H15.287H15.2933H15.2997H15.3061H15.3124H15.3188H15.3251H15.3315H15.3378H15.3442H15.3505H15.3568H15.3632H15.3695H15.3758H15.3821H15.3885H15.3948H15.4011H15.4074H15.4137H15.42H15.4263H15.4326H15.4389H15.4452H15.4515H15.4578H15.4641H15.4703H15.4766H15.4829H15.4892H15.4955H15.5017H15.508H15.5143H15.5205H15.5268H15.533H15.5393H15.5456H15.5518H15.5581H15.5643H15.5705H15.5768H15.583H15.5893H15.5955H15.6017H15.608H15.6142H15.6204H15.6267H15.6329H15.6391H15.6453H15.6516H15.6578H15.664H15.6702H15.6764H15.6827H15.6889H15.6951H15.7013H15.7075H15.7137H15.7199H15.7261H15.7323H15.7385H15.7447H15.7509H15.7571H15.7633H15.7695H15.7757H15.7819H15.7881H15.7943H15.8005H15.8067H15.8128H15.819H15.8252H15.8314H15.8376H15.8438H15.85H15.8562H15.8623H15.8685H15.8747H15.8809H15.8871H15.8933H15.8994H15.9056H15.9118H15.918H15.9242H15.9303H15.9365H15.9427H15.9489H15.955H15.9612H15.9674H15.9736H15.9798H15.9859H15.9921H15.9983H16.0045H16.0107H16.0168H16.023H16.0292H16.0354H16.0416H16.0477H16.0539H16.0601H16.0663H16.0725H16.0786H16.0848H16.091H16.0972H16.1034H16.1096H16.1158H16.1219H16.1281H16.1343H16.1405H16.1467H16.1529H16.1591H16.1653H16.1715H16.1777H16.1839H16.1901H16.1963H16.2025H16.2087H16.2149H16.2211H16.2273H16.2335H16.2397H16.2459H16.2521H16.2583H16.2645H16.2707H16.277H16.2832H16.2894H16.2956H16.3018H16.3081H16.3143H16.3205H16.3267H16.333H16.3392H16.3454H16.3517H16.3579H16.3642H16.3704H16.3766H16.3829H16.3891H16.3954H16.4016H16.4079H16.4142H16.4204H16.4267H16.4329H16.4392H16.4455H16.4518H16.458H16.4643H16.4706H16.4769H16.4831H16.4894H16.4957H16.502H16.5083H16.5146H16.5209H16.5272H16.5335H16.5398H16.5461H16.5524H16.5588H16.5651H16.5714H16.5777H16.5841H16.5904H16.5967H16.6031H16.6094H16.6158H16.6221H16.6285H16.6348H16.6412H16.6475H16.6539H16.6603H16.6666H16.673H16.6794H16.6858H16.6922H16.6986H16.705H16.7113H16.7177H16.7242H16.7306H16.737H16.7434H16.7498H16.7562H16.7627H16.7691H16.7755H16.782H16.7884H16.7949H16.8013H16.8078H16.8142H16.8207H16.8272H16.8336H16.8401H16.8466H16.8531H16.8596H16.8661H16.8726H16.8791H16.8856H16.8921H16.8986H16.9052H16.9117H16.9182H16.9248H16.9313H16.9378H44.0622H47.4878H51.0625C52.4915 29.975 53.65 31.1335 53.65 32.5625V35.5C53.65 36.929 52.4915 38.0875 51.0625 38.0875ZM12.875 38.0875H12.525V38.4375V51.657C12.525 54.2836 14.6543 56.4125 17.2812 56.4125H43.7188C46.3457 56.4125 48.475 54.2836 48.475 51.657V38.4375V38.0875H48.125H12.875ZM9.9375 32.2125H9.5875V32.5625V35.5V35.85H9.9375H51.0625H51.4125V35.5V32.5625V32.2125H51.0625H9.9375ZM18.75 41.725C19.3679 41.725 19.8688 42.2259 19.8688 42.8437V51.6563C19.8688 52.2741 19.3679 52.775 18.75 52.775C18.1321 52.775 17.6313 52.2741 17.6313 51.6563V42.8437C17.6313 42.2259 18.1321 41.725 18.75 41.725ZM24.625 41.725C25.2429 41.725 25.7437 42.2259 25.7437 42.8437V51.6563C25.7437 52.2741 25.2429 52.775 24.625 52.775C24.0071 52.775 23.5063 52.2741 23.5063 51.6563V42.8437C23.5063 42.2259 24.0071 41.725 24.625 41.725ZM30.5 41.725C31.1179 41.725 31.6187 42.2259 31.6187 42.8437V51.6563C31.6187 52.2741 31.1179 52.775 30.5 52.775C29.8821 52.775 29.3813 52.2741 29.3813 51.6563V42.8437C29.3813 42.2259 29.8821 41.725 30.5 41.725ZM36.375 41.725C36.9929 41.725 37.4937 42.2259 37.4937 42.8437V51.6563C37.4937 52.2741 36.9929 52.775 36.375 52.775C35.7571 52.775 35.2563 52.2741 35.2563 51.6563V42.8437C35.2563 42.2259 35.7571 41.725 36.375 41.725ZM42.25 41.725C42.8679 41.725 43.3688 42.2259 43.3688 42.8437V51.6563C43.3688 52.2741 42.8679 52.775 42.25 52.775C41.6321 52.775 41.1312 52.2741 41.1312 51.6563V42.8437C41.1312 42.2259 41.6321 41.725 42.25 41.725Z" fill="#8FB339" stroke="#FFF9EF" stroke-width="0.7"/>
<mask style="mask-type:alpha" maskUnits="userSpaceOnUse" x="-19" y="-7" width="99" height="38">
<rect width="99" height="38" transform="matrix(1 0 0 -1 -19 31)" fill="#D9D9D9"/>
</mask>
<g mask="url(#mask0_1_328)">
<path d="M13.9996 18.2114L5.9291 4.23294C5.83181 4.05981 5.67464 3.92819 5.48723 3.86293C5.29981 3.79767 5.0951 3.80324 4.91172 3.87863C4.72834 3.95403 4.57897 4.09403 4.49175 4.2722C4.40454 4.45036 4.3855 4.65439 4.43827 4.84583L6.1213 11.2867L1.38154 6.61063C1.24139 6.47346 1.05654 6.39154 0.860981 6.37994C0.665425 6.36834 0.47235 6.42783 0.317358 6.54748C0.162365 6.66714 0.055883 6.83892 0.0175211 7.03111C-0.0208409 7.2233 0.0115116 7.423 0.108608 7.5934L8.24495 21.686C8.00451 22.3247 7.85795 22.9951 7.80981 23.6762C7.79356 23.8909 7.86307 24.1034 8.00313 24.2671C8.14319 24.4307 8.34234 24.5322 8.55685 24.5492C8.59162 24.5519 8.62654 24.5521 8.66133 24.5497C8.85811 24.5409 9.0448 24.4604 9.18632 24.3235C9.32784 24.1865 9.41444 24.0025 9.4299 23.806C9.55467 22.2253 10.279 20.9464 11.4216 20.2867C13.4952 19.0895 16.4075 20.1644 18.2009 22.6766L15.5706 24.1952C15.3841 24.3029 15.2481 24.4803 15.1925 24.6885C15.1369 24.8968 15.1662 25.1187 15.2741 25.3055C15.3819 25.4923 15.5594 25.6286 15.7676 25.6846C15.9757 25.7405 16.1974 25.7114 16.3838 25.6038L18.9881 24.1002C19.5946 25.4891 20.9163 28.6127 22.4383 32.2337L21.4617 32.7975C21.2752 32.9052 21.1392 33.0827 21.0836 33.2909C21.028 33.4991 21.0573 33.721 21.1651 33.9078C21.273 34.0946 21.4505 34.231 21.6586 34.2869C21.8668 34.3429 22.0884 34.3138 22.2749 34.2061L23.0757 33.7438C23.4157 34.6325 24.4647 36.4778 24.1032 37.4516C23.6775 38.5983 21.7087 38.8635 20.3577 39.7155C19.8744 39.9285 19.6619 40.212 19.2837 39.7155C17.6344 37.5505 15.9884 35.3837 14.5762 33.5165L17.506 31.825C17.6925 31.7174 17.8285 31.5399 17.8841 31.3317C17.9397 31.1235 17.9103 30.9016 17.8025 30.7148C17.6947 30.528 17.5172 30.3916 17.309 30.3357C17.1009 30.2797 16.8792 30.3087 16.6927 30.4164L13.5709 32.2188C11.8398 29.9272 10.6262 28.3063 10.479 28.0739C10.0079 27.2652 9.68326 26.3796 9.52006 25.4582C9.48834 25.2638 9.38692 25.0876 9.23481 24.9626C9.08271 24.8375 8.89036 24.7721 8.69376 24.7788L8.59819 24.7861C8.49278 24.8039 8.39191 24.8424 8.30144 24.8993C8.21097 24.9562 8.13266 25.0305 8.07097 25.1178C8.00927 25.2051 7.96543 25.3038 7.94196 25.4082C7.91848 25.5126 7.91584 25.6205 7.93418 25.726C8.12845 26.8365 8.51836 27.9039 9.08572 28.8783C9.47729 29.5565 18.787 41.9249 18.787 41.9249C18.787 41.9249 19.2099 40.0493 26.5197 38.4786C25.0986 35.0776 20.464 23.2134 20.0724 22.5352C18.6095 20.0539 16.2842 18.4922 13.9996 18.2114ZM10.6027 18.8683C10.3578 19.0108 10.1248 19.173 9.90601 19.3531L7.53301 10.2586L12.1641 18.2799C11.6146 18.3887 11.0866 18.5863 10.6008 18.865L10.6027 18.8683ZM7.77438 17.6232L4.52322 11.992L6.92262 14.3586L7.77438 17.6232Z" fill="#8FB339"/>
<path d="M55.389 12.1462C55.3869 10.6768 54.8284 9.26297 53.8262 8.18987C52.8241 7.11678 51.4528 6.46433 49.9892 6.36415C49.5961 5.45877 49.0118 4.64944 48.2765 3.99189C47.5412 3.33435 46.6723 2.8442 45.7298 2.55518C44.7872 2.26615 43.7933 2.18514 42.8165 2.31767C41.8397 2.4502 40.9032 2.79313 40.0713 3.32289C39.5741 2.63069 38.932 2.05547 38.19 1.63735C37.4479 1.21923 36.6238 0.9683 35.775 0.902016C34.9261 0.835733 34.0731 0.955702 33.2753 1.25358C32.4775 1.55146 31.7542 2.02009 31.1559 2.62674C30.2112 2.32508 29.2189 2.20086 28.2292 2.26033C26.8812 2.34446 25.5752 2.76318 24.4291 3.47882C23.283 4.19445 22.3327 5.18449 21.6638 6.35968C20.9949 7.53487 20.6285 8.85828 20.5976 10.2107C20.5667 11.563 20.8722 12.9019 21.4867 14.1065C20.895 14.7875 20.4683 15.5962 20.2399 16.4695C20.0115 17.3428 19.9875 18.2571 20.1699 19.1412C20.3522 20.0253 20.7359 20.8553 21.2912 21.5665C21.8464 22.2776 22.5581 22.8508 23.3708 23.2412C23.3708 23.8311 23.4001 24.4247 23.4367 25.0147C24.0403 34.6587 28.2365 42.3351 33.1826 43.1705C35.767 46.0239 39.5043 45.9074 42.014 43.0203C45.826 41.8038 49.1953 35.201 50.1246 26.7148C50.1721 26.2641 50.216 25.8025 50.2489 25.3408C50.8889 25.13 51.4688 24.7678 51.9394 24.285C52.41 23.8022 52.7575 23.2129 52.9525 22.567C53.8733 22.2628 54.7024 21.7303 55.3624 21.0189C56.0225 20.3075 56.4921 19.4405 56.7276 18.4984C56.9631 17.5564 56.9568 16.57 56.7094 15.631C56.4619 14.692 55.9812 13.831 55.3122 13.1282C55.3648 12.8035 55.3905 12.4751 55.389 12.1462ZM51.5038 21.8049C51.4122 22.3396 51.1571 22.8327 50.7738 23.216C50.3904 23.5993 49.8977 23.8539 49.3636 23.9447C49.1873 23.9742 49.0261 24.0628 48.9065 24.1959C48.7869 24.329 48.7159 24.4988 48.7051 24.6775C48.6649 25.3078 48.6137 25.938 48.5442 26.5536C47.893 32.5042 46.1003 37.0037 44.1212 39.4844C45.1975 36.7191 45.7305 33.7717 45.6906 30.804V30.7271C46.0973 30.3873 46.4241 29.9619 46.6479 29.4812C46.8718 29.0005 46.9871 28.4764 46.9857 27.946C46.9871 27.4314 46.8773 26.9227 46.6638 26.4546C47.3911 25.8052 47.9047 24.9501 48.1368 24.0022C48.3689 23.0543 48.3086 22.0583 47.9638 21.1454C47.6191 20.2326 47.0061 19.4459 46.2057 18.8892C45.4054 18.3325 44.4553 18.0319 43.4809 18.0271C43.2679 18.0281 43.0552 18.044 42.8444 18.0747C43.2596 17.0867 43.4388 16.0152 43.3676 14.9456C43.3527 14.6913 43.3234 14.438 43.2798 14.1871C43.7742 13.4402 44.1062 12.5974 44.2543 11.7136C44.4024 10.8297 44.3631 9.9246 44.1392 9.05693C43.9153 8.18926 43.5117 7.37848 42.9546 6.67721C42.3975 5.97593 41.6993 5.39987 40.9055 4.98643L40.8177 4.72996C41.4868 4.28266 42.2497 3.99545 43.0474 3.89063C43.8451 3.78581 44.6562 3.86614 45.4179 4.12541C46.1796 4.38468 46.8716 4.81595 47.4403 5.38585C48.0091 5.95576 48.4393 6.64904 48.6978 7.41209C48.7535 7.57156 48.8582 7.70927 48.9969 7.80539C49.1356 7.90151 49.3011 7.95108 49.4697 7.94704H49.6015C50.7163 7.94801 51.7853 8.39178 52.574 9.18101C53.3627 9.97024 53.8067 11.0405 53.8086 12.1571C53.8078 12.5144 53.7623 12.8701 53.6732 13.2161C53.6369 13.3569 53.6403 13.5051 53.6829 13.6441C53.7255 13.7832 53.8057 13.9077 53.9147 14.0039C54.4839 14.5116 54.9033 15.166 55.127 15.8959C55.3508 16.6257 55.3703 17.403 55.1836 18.1432C54.9968 18.8834 54.611 19.5581 54.0679 20.0939C53.5249 20.6297 52.8455 21.006 52.1038 21.1819C51.9542 21.2162 51.8178 21.2934 51.7112 21.404C51.6047 21.5146 51.5326 21.6539 51.5038 21.8049ZM24.9366 22.7246C24.9344 22.5641 24.8836 22.408 24.7908 22.2771C24.698 22.1462 24.5677 22.0467 24.4171 21.9917C23.7294 21.7414 23.1177 21.3179 22.6409 20.7621C22.164 20.2063 21.838 19.5369 21.6943 18.8183C21.5506 18.0998 21.594 17.3562 21.8204 16.6593C22.0467 15.9624 22.4484 15.3357 22.9867 14.8393C23.1217 14.7151 23.2093 14.5478 23.2347 14.366C23.26 14.1841 23.2216 13.9992 23.1257 13.8427C22.5364 12.876 22.2066 11.7731 22.1683 10.6411C22.1301 9.50906 22.3847 8.38637 22.9074 7.38199C23.4302 6.37761 24.2033 5.52562 25.1518 4.90878C26.1003 4.29194 27.1919 3.93122 28.3206 3.86156C28.456 3.86156 28.595 3.86156 28.734 3.86156C29.545 3.86309 30.3486 4.01463 31.1046 4.30857C31.2602 4.36923 31.4309 4.37921 31.5925 4.33711C31.754 4.29501 31.8982 4.20296 32.0046 4.07406C32.5066 3.45712 33.1704 2.99245 33.9213 2.73221C34.6723 2.47197 35.4807 2.42645 36.2561 2.60071C37.0314 2.77497 37.743 3.16216 38.3109 3.71883C38.8788 4.27549 39.2807 4.9796 39.4714 5.75222C39.5 5.8696 39.5552 5.97885 39.6325 6.07158C39.7099 6.16431 39.8074 6.23809 39.9177 6.28722C40.5754 6.58077 41.1587 7.01887 41.6243 7.56904C42.0899 8.11922 42.4258 8.7673 42.6071 9.46526C42.7884 10.1632 42.8105 10.8931 42.6717 11.6008C42.533 12.3085 42.2369 12.9758 41.8054 13.5532C41.7368 13.6448 41.6888 13.7502 41.6648 13.8622C41.6408 13.9742 41.6413 14.09 41.6664 14.2018C41.7308 14.4838 41.7724 14.7705 41.7908 15.0592C41.8306 15.6603 41.7675 16.2638 41.6042 16.8436C40.9773 16.3924 40.2251 16.1489 39.4531 16.1474C38.9495 15.4194 38.2519 14.8478 37.4397 14.4977C36.6275 14.1475 35.7335 14.0329 34.8594 14.167C33.9854 14.3011 33.1666 14.6784 32.4962 15.2559C31.8259 15.8335 31.331 16.588 31.0681 17.4335C30.2071 17.5056 29.3847 17.8224 28.6974 18.3467C28.0101 18.871 27.4866 19.5809 27.1884 20.393C26.8902 21.2051 26.8297 22.0856 27.0141 22.9309C27.1985 23.7762 27.62 24.5513 28.2292 25.1649C27.993 25.5372 27.8351 25.954 27.7652 26.3895C27.6954 26.8251 27.715 27.2703 27.8229 27.698C27.9307 28.1258 28.1246 28.527 28.3926 28.877C28.6606 29.2271 28.9971 29.5187 29.3816 29.7341C29.3816 30.1005 29.3596 30.4669 29.3596 30.8333C29.3596 34.7833 30.2047 38.3192 31.5912 40.9134C28.2218 38.7552 25.478 32.4199 25.0061 24.956C24.9585 24.1975 24.9366 23.4574 24.9366 22.7246ZM38.3153 43.6725V40.8767L41.0847 38.8395C41.1743 38.7806 41.2511 38.704 41.3102 38.6144C41.3693 38.5249 41.4097 38.4242 41.4287 38.3186C41.4478 38.2129 41.4452 38.1045 41.4211 37.9998C41.397 37.8952 41.3519 37.7966 41.2885 37.71C41.2251 37.6234 41.1449 37.5506 41.0525 37.4961C40.9602 37.4416 40.8577 37.4064 40.7514 37.3928C40.6451 37.3792 40.5371 37.3873 40.434 37.4168C40.3309 37.4463 40.2349 37.4965 40.1518 37.5644L38.3226 38.9054V33.1564L42.4346 28.6422C42.5758 28.4867 42.6496 28.2814 42.6396 28.0714C42.6297 27.8615 42.5368 27.6642 42.3816 27.5228C42.2264 27.3814 42.0214 27.3075 41.8118 27.3175C41.6022 27.3275 41.4052 27.4204 41.264 27.5759L38.3373 30.8003L38.3629 22.7392C38.3633 22.6354 38.3434 22.5326 38.304 22.4366C38.2647 22.3406 38.2069 22.2533 38.1338 22.1798C38.0607 22.1062 37.9739 22.0479 37.8782 22.0081C37.7825 21.9682 37.6799 21.9478 37.5763 21.9478C37.3674 21.9478 37.1669 22.0306 37.0188 22.1783C36.8707 22.3259 36.7871 22.5263 36.7861 22.7355V27.4073L34.6313 24.52C34.5057 24.3519 34.3185 24.2406 34.111 24.2107C33.9034 24.1808 33.6925 24.2348 33.5247 24.3606C33.3568 24.4864 33.2457 24.6739 33.2159 24.8818C33.186 25.0896 33.2399 25.3009 33.3655 25.469L36.7312 29.9869L36.7715 31.5662V36.2526L34.3314 35.1863C34.1373 35.1023 33.9178 35.0989 33.7213 35.1769C33.5247 35.2548 33.3671 35.4079 33.2832 35.6022C33.1993 35.7966 33.1959 36.0163 33.2738 36.2132C33.3516 36.4101 33.5044 36.5679 33.6984 36.652L36.7422 37.9821V40.492C36.7386 40.5384 36.7386 40.5849 36.7422 40.6312V43.6798C33.5265 42.8847 30.94 37.3152 30.94 30.8113C30.94 30.2947 30.94 29.7744 30.9912 29.2614C31.0022 29.086 30.9546 28.9119 30.8559 28.7667C30.7572 28.6214 30.613 28.5131 30.4461 28.459C30.1689 28.3688 29.9206 28.2066 29.7263 27.9891C29.532 27.7715 29.3987 27.5062 29.3399 27.2203C29.2812 26.9344 29.2991 26.638 29.3919 26.3613C29.4847 26.0845 29.649 25.8374 29.8681 25.6449C29.9587 25.5648 30.0298 25.4651 30.0761 25.3533C30.1224 25.2416 30.1426 25.1207 30.1352 25C30.126 24.8775 30.0881 24.7589 30.0245 24.6538C29.9609 24.5488 29.8735 24.4602 29.7693 24.3954C29.2458 24.0403 28.8499 23.5265 28.6395 22.9293C28.4291 22.3322 28.4154 21.6832 28.6004 21.0777C28.7854 20.4722 29.1593 19.9421 29.6674 19.5651C30.1754 19.1882 30.7907 18.9843 31.4229 18.9834H31.6241C31.8212 18.9968 32.0162 18.9358 32.1706 18.8124C32.325 18.6889 32.4276 18.5121 32.4582 18.3166C32.564 17.6702 32.8687 17.0731 33.3297 16.6086C33.7907 16.1441 34.3851 15.8354 35.0298 15.7256C35.6745 15.6158 36.3373 15.7105 36.9257 15.9963C37.5141 16.2821 37.9986 16.7449 38.3116 17.32C38.3878 17.4632 38.5065 17.5793 38.6513 17.6521C38.7961 17.725 38.96 17.751 39.1202 17.7267C39.2244 17.7122 39.3295 17.7048 39.4348 17.7047C39.8922 17.7067 40.3369 17.856 40.7031 18.1304C41.0694 18.4049 41.3378 18.79 41.4688 19.229C41.4993 19.3301 41.5495 19.4242 41.6166 19.5057C41.6836 19.5873 41.7661 19.6547 41.8593 19.7042C41.9525 19.7536 42.0546 19.784 42.1597 19.7936C42.2647 19.8032 42.3706 19.7919 42.4713 19.7602C43.2246 19.5091 44.0439 19.544 44.7732 19.8583C45.5026 20.1726 46.0912 20.7444 46.4272 21.4649C46.7632 22.1854 46.8231 23.0044 46.5956 23.7663C46.368 24.5282 45.8689 25.1798 45.1931 25.5972C45.0992 25.6545 45.0183 25.7306 44.9553 25.8208C44.8923 25.911 44.8487 26.0133 44.8272 26.1212C44.8084 26.229 44.8116 26.3395 44.8368 26.4459C44.862 26.5524 44.9085 26.6526 44.9736 26.7405C45.142 26.9653 45.2623 27.2225 45.3271 27.496C45.392 27.7694 45.4 28.0533 45.3506 28.33C45.3012 28.6067 45.1954 28.8702 45.0399 29.1042C44.8845 29.3382 44.6825 29.5377 44.4468 29.6901C44.3334 29.7628 44.2404 29.8631 44.1764 29.9817C44.1124 30.1003 44.0795 30.2332 44.0809 30.368C44.0809 30.5182 44.0809 30.6648 44.0809 30.815C44.0956 37.3225 41.5347 42.87 38.3153 43.6725Z" fill="#8FB339"/>
</g>
</symbol>

<symbol id="beans" width="84" height="47" viewBox="0 0 84 47" fill="none">
<mask fill="white">
<path d="M77.5775 1.18837C77.5035 1.37999 77.4676 1.58455 77.4718 1.79025C77.476 1.99594 77.5202 2.19872 77.6019 2.38708C77.6836 2.57544 77.8012 2.74563 77.948 2.8879C78.0947 3.03017 78.2678 3.14179 78.4572 3.21624C80.1165 3.87529 80.9389 4.96888 80.8316 6.38836C80.7243 7.80785 79.5729 9.45911 78.3141 9.75604C75.5749 10.3934 73.8799 12.6529 72.9931 14.3259C68.4301 11.9721 62.9803 15.9409 62.2007 16.4985C59.2477 18.3118 56.1718 19.9115 52.9961 21.2857C52.6339 21.4429 52.3451 21.7349 52.1894 22.1015C52.0337 22.4681 52.0229 22.8812 52.1593 23.2556L52.1593 23.3425C52.2388 23.532 52.3545 23.7038 52.4998 23.8479C52.645 23.992 52.8169 24.1057 53.0056 24.1824C53.1943 24.2591 53.3961 24.2973 53.5994 24.2949C53.8028 24.2924 54.0036 24.2493 54.1904 24.1681C57.5219 22.7088 60.7482 21.0148 63.8456 19.0985L63.9887 18.9899C65.2546 17.9977 69.1023 15.7164 71.6342 17.0996C72.0868 17.4048 72.4555 17.8215 72.7057 18.3104C72.9559 18.7994 73.0794 19.3447 73.0646 19.8952C73.0989 20.5135 73.0581 21.1337 72.943 21.7419C72.4478 20.6977 71.6193 19.853 70.5915 19.3444C69.5636 18.8359 68.3965 18.6931 67.2786 18.9392C67.0741 18.9758 66.8789 19.0539 66.7048 19.1687C66.5308 19.2835 66.3814 19.4325 66.2655 19.6071C66.1497 19.7817 66.0697 19.9782 66.0306 20.1848C65.9914 20.3913 65.9939 20.6037 66.0377 20.8093C66.0815 21.015 66.1657 21.2096 66.2854 21.3814C66.4052 21.5533 66.5579 21.6989 66.7345 21.8097C66.9111 21.9204 67.108 21.9939 67.3133 22.0258C67.5186 22.0577 67.7282 22.0474 67.9295 21.9954C68.2934 21.9163 68.6719 21.9414 69.0224 22.0679C69.373 22.1945 69.6818 22.4175 69.9142 22.7119C70.1466 23.0063 70.2933 23.3604 70.338 23.7345C70.3827 24.1087 70.3236 24.4882 70.1672 24.8302C70.0108 25.1722 69.7634 25.4632 69.4527 25.6707C69.142 25.8783 68.7804 25.994 68.4083 26.005C68.0363 26.016 67.6685 25.9218 67.3464 25.7329C67.0244 25.544 66.7607 25.268 66.5849 24.9358C66.3709 24.6165 66.0483 24.3881 65.6788 24.2941C65.3092 24.2 64.9183 24.247 64.5807 24.426C64.2431 24.605 63.9824 24.9035 63.8481 25.2646C63.7139 25.6257 63.7155 26.0243 63.8528 26.3843C64.3516 27.3227 65.1239 28.0828 66.0645 28.5609C67.0051 29.0391 68.0683 29.2122 69.1095 29.0566C67.7801 30.6249 66.3102 32.0651 64.7182 33.3586C64.958 32.6149 65.081 31.8378 65.0829 31.0555C65.0795 29.6437 64.6884 28.2606 63.9533 27.0609C63.2183 25.8613 62.1682 24.8923 60.9205 24.2622C60.5534 24.0779 60.1291 24.0487 59.7408 24.1811C59.3525 24.3135 59.0321 24.5967 58.85 24.9684C58.6679 25.34 58.639 25.7698 58.7698 26.163C58.9006 26.5562 59.1802 26.8806 59.5473 27.065C60.3631 27.4722 61.0339 28.126 61.4671 28.9359C61.9002 29.7457 62.0744 30.6718 61.9654 31.5862C61.8565 32.5006 61.4698 33.3582 60.8588 34.0405C60.2479 34.7228 59.4427 35.1962 58.5547 35.3952C57.6666 35.5942 56.7394 35.5091 55.9011 35.1516C55.0629 34.7941 54.355 34.1819 53.8752 33.3994C53.3953 32.617 53.1673 31.703 53.2225 30.7837C53.2777 29.8643 53.6133 28.9851 54.1833 28.2672C54.4403 27.9436 54.5598 27.5298 54.5155 27.1169C54.4713 26.704 54.2669 26.3258 53.9473 26.0656C53.6277 25.8053 53.219 25.6843 52.8113 25.7291C52.4035 25.7739 52.0301 25.981 51.773 26.3046C50.9555 27.3331 50.4176 28.5601 50.2126 29.864C50.0077 31.1678 50.1429 32.5033 50.6047 33.738C51.0666 34.9727 51.8391 36.0638 52.8457 36.903C53.8522 37.7422 55.0579 38.3004 56.3432 38.5223C52.6941 40.1589 48.8947 41.4275 45.0001 42.31C45.0251 42.1614 45.0251 42.0096 45.0001 41.861C44.9577 41.6597 44.8764 41.4688 44.761 41.2994C44.6456 41.1299 44.4983 40.9853 44.3275 40.8736C44.1568 40.7619 43.9659 40.6854 43.7659 40.6485C43.5659 40.6117 43.3607 40.6152 43.1621 40.6588C42.054 40.8618 40.9113 40.6209 39.9753 39.9868C39.0393 39.3527 38.3832 38.3752 38.1456 37.2605C37.908 36.1458 38.1075 34.9813 38.7019 34.0127C39.2962 33.0441 40.239 32.3474 41.3311 32.0694C41.8881 31.9471 42.4635 31.9371 43.0243 32.0402C43.5851 32.1433 44.1203 32.3574 44.5993 32.6702C45.0783 32.983 45.4916 33.3884 45.8156 33.8632C46.1397 34.338 46.368 34.8728 46.4877 35.4371C46.5692 35.8138 46.7852 36.1467 47.0943 36.372C47.4033 36.5973 47.7837 36.6991 48.1623 36.6578C48.5409 36.6165 48.8911 36.435 49.1457 36.1483C49.4003 35.8615 49.5412 35.4896 49.5416 35.104C49.5519 34.9932 49.5519 34.8816 49.5416 34.7708C49.2728 33.4998 48.6835 32.321 47.831 31.3492C46.9785 30.3774 45.892 29.6459 44.6773 29.2257C43.4625 28.8056 42.161 28.7113 40.8996 28.952C39.6381 29.1926 38.4598 29.7601 37.4793 30.5991C36.4989 31.438 35.7497 32.5198 35.3049 33.7391C34.8601 34.9584 34.7348 36.2736 34.9412 37.5565C35.1476 38.8394 35.6787 40.0463 36.4827 41.0596C37.2866 42.0729 38.3361 42.858 39.5288 43.3385C38.4274 43.4978 37.326 43.6281 36.2317 43.7222C34.4485 43.8767 32.7035 43.9492 30.9965 43.9395C31.7619 43.4228 32.4143 42.7523 32.9132 41.9697C33.6117 40.8786 33.982 39.6053 33.9788 38.305C33.9789 37.8182 33.9286 37.3327 33.8287 36.8566C33.7925 36.6495 33.7155 36.4518 33.6021 36.2756C33.4888 36.0993 33.3415 35.948 33.1691 35.8307C32.9967 35.7134 32.8026 35.6325 32.5986 35.5929C32.3946 35.5532 32.1849 35.5556 31.9818 35.6C31.7788 35.6443 31.5867 35.7296 31.417 35.8509C31.2472 35.9721 31.1033 36.1268 30.994 36.3056C30.8846 36.4845 30.812 36.6839 30.7805 36.8918C30.749 37.0997 30.7592 37.3118 30.8106 37.5156C30.9106 37.985 30.9183 38.4697 30.8333 38.9421C30.7484 39.4145 30.5724 39.8653 30.3154 40.2688C30.0583 40.6723 29.7254 41.0206 29.3355 41.2938C28.9455 41.567 28.5062 41.7597 28.0427 41.861C27.5792 41.9623 27.1006 41.9701 26.6341 41.8841C26.1676 41.798 25.7224 41.6198 25.3239 41.3596C24.9254 41.0993 24.5815 40.7622 24.3117 40.3673C24.0419 39.9724 23.8516 39.5276 23.7515 39.0583C23.5518 38.1105 23.7308 37.1213 24.2495 36.3069C24.7682 35.4926 25.5844 34.9194 26.5194 34.7129C27.0796 34.5896 27.661 34.6044 28.2144 34.7563C28.6108 34.8639 29.0332 34.8076 29.3886 34.5998C29.7441 34.392 30.0034 34.0497 30.1097 33.6483C30.2159 33.2469 30.1603 32.8191 29.9551 32.4591C29.7498 32.0992 29.4118 31.8366 29.0154 31.7291C27.9082 31.4328 26.7447 31.4282 25.6352 31.7156C24.5258 32.0031 23.5073 32.573 22.6767 33.3713C21.8461 34.1696 21.2308 35.1697 20.8894 36.2766C20.548 37.3835 20.4919 38.5605 20.7262 39.6956C21.0108 41.0297 21.6892 42.2446 22.6716 43.1791C20.5053 42.8066 18.372 42.2592 16.2919 41.5423C16.512 41.3988 16.693 41.2016 16.818 40.9687C16.943 40.7358 17.008 40.4748 17.0072 40.2097C17.0173 40.0989 17.0173 39.9874 17.0072 39.8766C16.9648 39.6755 16.8835 39.4848 16.7679 39.3157C16.6524 39.1466 16.505 39.0024 16.3341 38.8913C16.1632 38.7801 15.9723 38.7043 15.7723 38.6684C15.5724 38.6324 15.3674 38.6369 15.1691 38.6816C14.784 38.7659 14.3818 38.7079 14.0351 38.5183C13.6884 38.3286 13.4201 38.0198 13.2785 37.6475C13.137 37.2751 13.1315 36.8637 13.2631 36.4877C13.3947 36.1116 13.6547 35.7955 13.9962 35.5964C14.3509 35.388 14.6093 35.0455 14.7146 34.6441C14.8199 34.2428 14.7634 33.8155 14.5576 33.4564C14.3518 33.0972 14.0135 32.8355 13.6172 32.7289C13.2209 32.6222 12.7989 32.6794 12.4442 32.8878C11.5745 33.3952 10.8873 34.1702 10.4822 35.1C10.077 36.0299 9.97511 37.0663 10.1913 38.0588C10.2476 38.3347 10.3316 38.604 10.4417 38.8627C8.83131 37.9379 7.31066 36.8613 5.90007 35.6472C5.85076 35.6022 5.79818 35.561 5.74275 35.524C4.99496 34.9819 4.37055 34.2838 3.91162 33.4768C3.45268 32.6698 3.16989 31.7726 3.08222 30.8455L8.1816 31.2293C20.5573 32.3126 33.0239 31.0378 44.9358 27.4706C45.1307 27.4126 45.3124 27.3159 45.4703 27.1863C45.6282 27.0567 45.7592 26.8967 45.8556 26.7155C45.952 26.5344 46.012 26.3357 46.0321 26.1309C46.0523 25.9261 46.0321 25.7192 45.9728 25.5224L45.9728 25.4427C45.8393 25.0679 45.5696 24.7588 45.2187 24.5785C44.8678 24.3981 44.4622 24.3601 44.0846 24.4723C32.5563 27.8667 20.5114 29.094 8.54636 28.0934C8.54636 28.0934 8.49632 28.0934 8.47486 28.0934L1.77344 27.5937C1.38787 27.563 1.00494 27.6799 0.700373 27.9213C0.395803 28.1627 0.191711 28.511 0.12844 28.8973C-0.765561 34.4304 3.27533 37.5881 3.98338 38.0661C11.8506 44.8303 23.4011 47.93 36.5393 46.7568C47.1887 45.837 58.3672 42.0421 65.0114 37.0956C72.1634 31.8015 76.283 25.5587 76.283 20.2501C76.283 20.0183 76.283 19.7866 76.283 19.5259C76.2179 18.4375 75.9177 17.3768 75.4033 16.4189C75.8324 15.4339 77.0411 13.0874 79.0937 12.6095C81.6756 12.0011 83.7854 9.34316 84 6.42452L84 5.96101C84 3.36103 82.398 1.19562 79.6445 0.10928C79.4396 0.0273784 79.2198 -0.00918544 78.9999 0.00195349C78.7799 0.0130962 78.5648 0.0717129 78.3691 0.173905C78.1734 0.276097 78.0015 0.419484 77.8649 0.594456C77.7284 0.769429 77.6304 0.971901 77.5775 1.18837Z"/>
</mask>
<path d="M77.5775 1.18837C77.5035 1.37999 77.4676 1.58455 77.4718 1.79025C77.476 1.99594 77.5202 2.19872 77.6019 2.38708C77.6836 2.57544 77.8012 2.74563 77.948 2.8879C78.0947 3.03017 78.2678 3.14179 78.4572 3.21624C80.1165 3.87529 80.9389 4.96888 80.8316 6.38836C80.7243 7.80785 79.5729 9.45911 78.3141 9.75604C75.5749 10.3934 73.8799 12.6529 72.9931 14.3259C68.4301 11.9721 62.9803 15.9409 62.2007 16.4985C59.2477 18.3118 56.1718 19.9115 52.9961 21.2857C52.6339 21.4429 52.3451 21.7349 52.1894 22.1015C52.0337 22.4681 52.0229 22.8812 52.1593 23.2556L52.1593 23.3425C52.2388 23.532 52.3545 23.7038 52.4998 23.8479C52.645 23.992 52.8169 24.1057 53.0056 24.1824C53.1943 24.2591 53.3961 24.2973 53.5994 24.2949C53.8028 24.2924 54.0036 24.2493 54.1904 24.1681C57.5219 22.7088 60.7482 21.0148 63.8456 19.0985L63.9887 18.9899C65.2546 17.9977 69.1023 15.7164 71.6342 17.0996C72.0868 17.4048 72.4555 17.8215 72.7057 18.3104C72.9559 18.7994 73.0794 19.3447 73.0646 19.8952C73.0989 20.5135 73.0581 21.1337 72.943 21.7419C72.4478 20.6977 71.6193 19.853 70.5915 19.3444C69.5636 18.8359 68.3965 18.6931 67.2786 18.9392C67.0741 18.9758 66.8789 19.0539 66.7048 19.1687C66.5308 19.2835 66.3814 19.4325 66.2655 19.6071C66.1497 19.7817 66.0697 19.9782 66.0306 20.1848C65.9914 20.3913 65.9939 20.6037 66.0377 20.8093C66.0815 21.015 66.1657 21.2096 66.2854 21.3814C66.4052 21.5533 66.5579 21.6989 66.7345 21.8097C66.9111 21.9204 67.108 21.9939 67.3133 22.0258C67.5186 22.0577 67.7282 22.0474 67.9295 21.9954C68.2934 21.9163 68.6719 21.9414 69.0224 22.0679C69.373 22.1945 69.6818 22.4175 69.9142 22.7119C70.1466 23.0063 70.2933 23.3604 70.338 23.7345C70.3827 24.1087 70.3236 24.4882 70.1672 24.8302C70.0108 25.1722 69.7634 25.4632 69.4527 25.6707C69.142 25.8783 68.7804 25.994 68.4083 26.005C68.0363 26.016 67.6685 25.9218 67.3464 25.7329C67.0244 25.544 66.7607 25.268 66.5849 24.9358C66.3709 24.6165 66.0483 24.3881 65.6788 24.2941C65.3092 24.2 64.9183 24.247 64.5807 24.426C64.2431 24.605 63.9824 24.9035 63.8481 25.2646C63.7139 25.6257 63.7155 26.0243 63.8528 26.3843C64.3516 27.3227 65.1239 28.0828 66.0645 28.5609C67.0051 29.0391 68.0683 29.2122 69.1095 29.0566C67.7801 30.6249 66.3102 32.0651 64.7182 33.3586C64.958 32.6149 65.081 31.8378 65.0829 31.0555C65.0795 29.6437 64.6884 28.2606 63.9533 27.0609C63.2183 25.8613 62.1682 24.8923 60.9205 24.2622C60.5534 24.0779 60.1291 24.0487 59.7408 24.1811C59.3525 24.3135 59.0321 24.5967 58.85 24.9684C58.6679 25.34 58.639 25.7698 58.7698 26.163C58.9006 26.5562 59.1802 26.8806 59.5473 27.065C60.3631 27.4722 61.0339 28.126 61.4671 28.9359C61.9002 29.7457 62.0744 30.6718 61.9654 31.5862C61.8565 32.5006 61.4698 33.3582 60.8588 34.0405C60.2479 34.7228 59.4427 35.1962 58.5547 35.3952C57.6666 35.5942 56.7394 35.5091 55.9011 35.1516C55.0629 34.7941 54.355 34.1819 53.8752 33.3994C53.3953 32.617 53.1673 31.703 53.2225 30.7837C53.2777 29.8643 53.6133 28.9851 54.1833 28.2672C54.4403 27.9436 54.5598 27.5298 54.5155 27.1169C54.4713 26.704 54.2669 26.3258 53.9473 26.0656C53.6277 25.8053 53.219 25.6843 52.8113 25.7291C52.4035 25.7739 52.0301 25.981 51.773 26.3046C50.9555 27.3331 50.4176 28.5601 50.2126 29.864C50.0077 31.1678 50.1429 32.5033 50.6047 33.738C51.0666 34.9727 51.8391 36.0638 52.8457 36.903C53.8522 37.7422 55.0579 38.3004 56.3432 38.5223C52.6941 40.1589 48.8947 41.4275 45.0001 42.31C45.0251 42.1614 45.0251 42.0096 45.0001 41.861C44.9577 41.6597 44.8764 41.4688 44.761 41.2994C44.6456 41.1299 44.4983 40.9853 44.3275 40.8736C44.1568 40.7619 43.9659 40.6854 43.7659 40.6485C43.5659 40.6117 43.3607 40.6152 43.1621 40.6588C42.054 40.8618 40.9113 40.6209 39.9753 39.9868C39.0393 39.3527 38.3832 38.3752 38.1456 37.2605C37.908 36.1458 38.1075 34.9813 38.7019 34.0127C39.2962 33.0441 40.239 32.3474 41.3311 32.0694C41.8881 31.9471 42.4635 31.9371 43.0243 32.0402C43.5851 32.1433 44.1203 32.3574 44.5993 32.6702C45.0783 32.983 45.4916 33.3884 45.8156 33.8632C46.1397 34.338 46.368 34.8728 46.4877 35.4371C46.5692 35.8138 46.7852 36.1467 47.0943 36.372C47.4033 36.5973 47.7837 36.6991 48.1623 36.6578C48.5409 36.6165 48.8911 36.435 49.1457 36.1483C49.4003 35.8615 49.5412 35.4896 49.5416 35.104C49.5519 34.9932 49.5519 34.8816 49.5416 34.7708C49.2728 33.4998 48.6835 32.321 47.831 31.3492C46.9785 30.3774 45.892 29.6459 44.6773 29.2257C43.4625 28.8056 42.161 28.7113 40.8996 28.952C39.6381 29.1926 38.4598 29.7601 37.4793 30.5991C36.4989 31.438 35.7497 32.5198 35.3049 33.7391C34.8601 34.9584 34.7348 36.2736 34.9412 37.5565C35.1476 38.8394 35.6787 40.0463 36.4827 41.0596C37.2866 42.0729 38.3361 42.858 39.5288 43.3385C38.4274 43.4978 37.326 43.6281 36.2317 43.7222C34.4485 43.8767 32.7035 43.9492 30.9965 43.9395C31.7619 43.4228 32.4143 42.7523 32.9132 41.9697C33.6117 40.8786 33.982 39.6053 33.9788 38.305C33.9789 37.8182 33.9286 37.3327 33.8287 36.8566C33.7925 36.6495 33.7155 36.4518 33.6021 36.2756C33.4888 36.0993 33.3415 35.948 33.1691 35.8307C32.9967 35.7134 32.8026 35.6325 32.5986 35.5929C32.3946 35.5532 32.1849 35.5556 31.9818 35.6C31.7788 35.6443 31.5867 35.7296 31.417 35.8509C31.2472 35.9721 31.1033 36.1268 30.994 36.3056C30.8846 36.4845 30.812 36.6839 30.7805 36.8918C30.749 37.0997 30.7592 37.3118 30.8106 37.5156C30.9106 37.985 30.9183 38.4697 30.8333 38.9421C30.7484 39.4145 30.5724 39.8653 30.3154 40.2688C30.0583 40.6723 29.7254 41.0206 29.3355 41.2938C28.9455 41.567 28.5062 41.7597 28.0427 41.861C27.5792 41.9623 27.1006 41.9701 26.6341 41.8841C26.1676 41.798 25.7224 41.6198 25.3239 41.3596C24.9254 41.0993 24.5815 40.7622 24.3117 40.3673C24.0419 39.9724 23.8516 39.5276 23.7515 39.0583C23.5518 38.1105 23.7308 37.1213 24.2495 36.3069C24.7682 35.4926 25.5844 34.9194 26.5194 34.7129C27.0796 34.5896 27.661 34.6044 28.2144 34.7563C28.6108 34.8639 29.0332 34.8076 29.3886 34.5998C29.7441 34.392 30.0034 34.0497 30.1097 33.6483C30.2159 33.2469 30.1603 32.8191 29.9551 32.4591C29.7498 32.0992 29.4118 31.8366 29.0154 31.7291C27.9082 31.4328 26.7447 31.4282 25.6352 31.7156C24.5258 32.0031 23.5073 32.573 22.6767 33.3713C21.8461 34.1696 21.2308 35.1697 20.8894 36.2766C20.548 37.3835 20.4919 38.5605 20.7262 39.6956C21.0108 41.0297 21.6892 42.2446 22.6716 43.1791C20.5053 42.8066 18.372 42.2592 16.2919 41.5423C16.512 41.3988 16.693 41.2016 16.818 40.9687C16.943 40.7358 17.008 40.4748 17.0072 40.2097C17.0173 40.0989 17.0173 39.9874 17.0072 39.8766C16.9648 39.6755 16.8835 39.4848 16.7679 39.3157C16.6524 39.1466 16.505 39.0024 16.3341 38.8913C16.1632 38.7801 15.9723 38.7043 15.7723 38.6684C15.5724 38.6324 15.3674 38.6369 15.1691 38.6816C14.784 38.7659 14.3818 38.7079 14.0351 38.5183C13.6884 38.3286 13.4201 38.0198 13.2785 37.6475C13.137 37.2751 13.1315 36.8637 13.2631 36.4877C13.3947 36.1116 13.6547 35.7955 13.9962 35.5964C14.3509 35.388 14.6093 35.0455 14.7146 34.6441C14.8199 34.2428 14.7634 33.8155 14.5576 33.4564C14.3518 33.0972 14.0135 32.8355 13.6172 32.7289C13.2209 32.6222 12.7989 32.6794 12.4442 32.8878C11.5745 33.3952 10.8873 34.1702 10.4822 35.1C10.077 36.0299 9.97511 37.0663 10.1913 38.0588C10.2476 38.3347 10.3316 38.604 10.4417 38.8627C8.83131 37.9379 7.31066 36.8613 5.90007 35.6472C5.85076 35.6022 5.79818 35.561 5.74275 35.524C4.99496 34.9819 4.37055 34.2838 3.91162 33.4768C3.45268 32.6698 3.16989 31.7726 3.08222 30.8455L8.1816 31.2293C20.5573 32.3126 33.0239 31.0378 44.9358 27.4706C45.1307 27.4126 45.3124 27.3159 45.4703 27.1863C45.6282 27.0567 45.7592 26.8967 45.8556 26.7155C45.952 26.5344 46.012 26.3357 46.0321 26.1309C46.0523 25.9261 46.0321 25.7192 45.9728 25.5224L45.9728 25.4427C45.8393 25.0679 45.5696 24.7588 45.2187 24.5785C44.8678 24.3981 44.4622 24.3601 44.0846 24.4723C32.5563 27.8667 20.5114 29.094 8.54636 28.0934C8.54636 28.0934 8.49632 28.0934 8.47486 28.0934L1.77344 27.5937C1.38787 27.563 1.00494 27.6799 0.700373 27.9213C0.395803 28.1627 0.191711 28.511 0.12844 28.8973C-0.765561 34.4304 3.27533 37.5881 3.98338 38.0661C11.8506 44.8303 23.4011 47.93 36.5393 46.7568C47.1887 45.837 58.3672 42.0421 65.0114 37.0956C72.1634 31.8015 76.283 25.5587 76.283 20.2501C76.283 20.0183 76.283 19.7866 76.283 19.5259C76.2179 18.4375 75.9177 17.3768 75.4033 16.4189C75.8324 15.4339 77.0411 13.0874 79.0937 12.6095C81.6756 12.0011 83.7854 9.34316 84 6.42452L84 5.96101C84 3.36103 82.398 1.19562 79.6445 0.10928C79.4396 0.0273784 79.2198 -0.00918544 78.9999 0.00195349C78.7799 0.0130962 78.5648 0.0717129 78.3691 0.173905C78.1734 0.276097 78.0015 0.419484 77.8649 0.594456C77.7284 0.769429 77.6304 0.971901 77.5775 1.18837Z" fill="#333333" stroke="#FFF9EF" stroke-width="1.2" mask="url(#path-1-inside-1_1_351)"/>
</symbol>

</defs>
</svg>

