<svg aria-hidden="true" style="position: absolute; width: 0; height: 0; overflow: hidden;" version="1.1" xmlns="http://www.w3.org/2000/svg" xmlns:xlink="http://www.w3.org/1999/xlink">
<defs>

<symbol id="icon-burger" viewBox="0 0 32 32">
<path d="M4.799 8.001c0-0.424 0.169-0.831 0.469-1.131s0.707-0.469 1.131-0.469h19.2c0.424 0 0.831 0.169 1.131 0.469s0.469 0.707 0.469 1.131-0.169 0.831-0.469 1.131c-0.3 0.3-0.707 0.469-1.131 0.469h-19.2c-0.424 0-0.831-0.169-1.131-0.469s-0.469-0.707-0.469-1.131z"></path>
<path d="M4.799 16.001c0-0.424 0.169-0.831 0.469-1.131s0.707-0.469 1.131-0.469h19.2c0.424 0 0.831 0.169 1.131 0.469s0.469 0.707 0.469 1.131c0 0.424-0.169 0.831-0.469 1.131s-0.707 0.469-1.131 0.469h-19.2c-0.424 0-0.831-0.169-1.131-0.469s-0.469-0.707-0.469-1.131z"></path>
<path d="M4.799 24.001c0-0.424 0.169-0.831 0.469-1.131s0.707-0.469 1.131-0.469h19.2c0.424 0 0.831 0.169 1.131 0.469s0.469 0.707 0.469 1.131c0 0.424-0.169 0.831-0.469 1.131s-0.707 0.469-1.131 0.469h-19.2c-0.424 0-0.831-0.169-1.131-0.469s-0.469-0.707-0.469-1.131z"></path>
</symbol>

<symbol id="icon-heart-o" viewBox="0 0 28 28">
<path d="M26 9.312c0-4.391-2.969-5.313-5.469-5.313-2.328 0-4.953 2.516-5.766 3.484-0.375 0.453-1.156 0.453-1.531 0-0.812-0.969-3.437-3.484-5.766-3.484-2.5 0-5.469 0.922-5.469 5.313 0 2.859 2.891 5.516 2.922 5.547l9.078 8.75 9.063-8.734c0.047-0.047 2.938-2.703 2.938-5.563zM28 9.312c0 3.75-3.437 6.891-3.578 7.031l-9.734 9.375c-0.187 0.187-0.438 0.281-0.688 0.281s-0.5-0.094-0.688-0.281l-9.75-9.406c-0.125-0.109-3.563-3.25-3.563-7 0-4.578 2.797-7.313 7.469-7.313 2.734 0 5.297 2.156 6.531 3.375 1.234-1.219 3.797-3.375 6.531-3.375 4.672 0 7.469 2.734 7.469 7.313z"></path>
</symbol>

<symbol id="icon-basket" viewBox="0 0 37 32">
<path d="M28.42 8.134h6.053c1.066 0 1.588 0.513 1.588 1.549 0 5.095 0 10.192 0 15.292 0.011 0.905-0.164 1.802-0.513 2.64s-0.868 1.599-1.523 2.239c-0.656 0.64-1.436 1.146-2.295 1.488s-1.779 0.514-2.707 0.504h-20.666c-0.928 0.009-1.848-0.163-2.707-0.505s-1.639-0.848-2.294-1.488c-0.655-0.64-1.173-1.401-1.523-2.239s-0.524-1.735-0.514-2.64v-15.322c0-0.985 0.542-1.52 1.549-1.52h6.097v-0.465c0-1.2 0-2.398 0-3.599 0.003-1.077 0.443-2.109 1.225-2.871s1.84-1.191 2.944-1.194c3.706-0.008 7.412-0.008 11.117 0 1.105 0.003 2.164 0.432 2.945 1.193s1.221 1.794 1.224 2.872c0.006 1.353 0 2.681 0 4.063zM33.282 10.879h-4.862c0 0.902 0 1.777 0 2.65-0.003 0.359-0.152 0.703-0.414 0.955s-0.617 0.393-0.986 0.39c-0.369-0.003-0.721-0.148-0.98-0.404s-0.403-0.602-0.4-0.961c0-0.648 0-1.299 0-1.947v-0.693h-13.851c-0.017 0.031-0.031 0.063-0.040 0.097 0 0.763 0 1.523 0 2.286 0.013 0.225-0.002 0.45-0.046 0.672-0.090 0.314-0.293 0.586-0.572 0.765s-0.615 0.255-0.946 0.213c-0.331-0.042-0.636-0.2-0.858-0.443s-0.347-0.557-0.351-0.883c0-0.898 0-1.796 0-2.698h-4.878v0.364c0 4.531 0 9.062 0 13.593 0 2.54 1.82 4.307 4.429 4.309 6.774 0 13.548 0 20.323 0 0.39 0.003 0.779-0.037 1.159-0.12 2.001-0.459 3.272-2.085 3.272-4.187 0-4.53 0-9.060 0-13.591v-0.366zM25.639 8.117c0-1.299 0-2.578 0-3.858 0-0.968-0.596-1.549-1.608-1.549-3.558 0-7.116 0-10.677 0-1.028 0-1.608 0.571-1.612 1.578 0 1.161 0 2.313 0 3.471 0 0.12 0.016 0.24 0.024 0.35l13.873 0.008z"></path>
</symbol>

<symbol id="icon-search" viewBox="0 0 32 32">
<path d="M19.427 20.427c-1.39 0.99-3.090 1.573-4.927 1.573-4.694 0-8.5-3.806-8.5-8.5s3.806-8.5 8.5-8.5c4.694 0 8.5 3.806 8.5 8.5 0 1.837-0.583 3.537-1.573 4.927l5.585 5.585c0.55 0.55 0.546 1.431-0 1.976l-0.023 0.023c-0.544 0.544-1.431 0.546-1.976 0l-5.585-5.585zM14.5 20c3.59 0 6.5-2.91 6.5-6.5s-2.91-6.5-6.5-6.5c-3.59 0-6.5 2.91-6.5 6.5s2.91 6.5 6.5 6.5v0z"></path>
</symbol>

<symbol id="icon-instagram" viewBox="0 0 32 32">
<path fill="none" stroke="#42272d" style="stroke: var(--color1, #42272d)" stroke-linejoin="miter" stroke-linecap="butt" stroke-miterlimit="4" stroke-width="2.6667" d="M8.889 1.333h14.222c4.173 0 7.556 3.383 7.556 7.556v14.222c0 4.173-3.383 7.556-7.556 7.556h-14.222c-4.173 0-7.556-3.383-7.556-7.556v-14.222c0-4.173 3.383-7.556 7.556-7.556z"></path>
<path fill="none" stroke="#42272d" style="stroke: var(--color1, #42272d)" stroke-linejoin="miter" stroke-linecap="butt" stroke-miterlimit="4" stroke-width="2.6667" d="M22.987 16c0 3.859-3.128 6.987-6.987 6.987s-6.987-3.128-6.987-6.987c0-3.859 3.128-6.987 6.987-6.987s6.987 3.128 6.987 6.987z"></path>
<path d="M26.88 8.32c0 1.060-0.86 1.92-1.92 1.92s-1.92-0.86-1.92-1.92c0-1.060 0.86-1.92 1.92-1.92s1.92 0.86 1.92 1.92z"></path>
</symbol>

<symbol id="icon-fifth" viewBox="0 0 24 32">
<path fill="none" stroke="#42272d" style="stroke: var(--color1, #42272d)" stroke-linejoin="miter" stroke-linecap="round" stroke-miterlimit="4" stroke-width="0.9552" d="M20.014 19.436v-1.405c0-0.629-0.51-1.139-1.139-1.139h-12.191c-0.629 0-1.139 0.51-1.139 1.139v12.191c0 0.629 0.51 1.139 1.139 1.139h12.191c0.629 0 1.139-0.51 1.139-1.139v-0.054"></path>
<path fill="none" stroke="#42272d" style="stroke: var(--color1, #42272d)" stroke-linejoin="miter" stroke-linecap="butt" stroke-miterlimit="4" stroke-width="0.9552" d="M19.778 20.657c0.099-0.062 0.224-0.062 0.323 0l3.091 1.935c0.089 0.056 0.143 0.153 0.143 0.258v1.619c0 1.576-0.811 3.040-2.147 3.876l-1.087 0.681c-0.099 0.062-0.224 0.062-0.323 0l-1.087-0.681c-1.336-0.836-2.147-2.301-2.147-3.876v-1.619c0-0.105 0.054-0.202 0.143-0.258l3.091-1.935z"></path>
<path fill="none" stroke="#42272d" style="stroke: var(--color1, #42272d)" stroke-linejoin="miter" stroke-linecap="round" stroke-miterlimit="4" stroke-width="0.9552" d="M18.145 24.464l1.511 1.889"></path>
<path fill="none" stroke="#42272d" style="stroke: var(--color1, #42272d)" stroke-linejoin="miter" stroke-linecap="round" stroke-miterlimit="4" stroke-width="0.9552" d="M21.695 23.079l-2.038 3.261"></path>
<path fill="none" stroke="#42272d" style="stroke: var(--color1, #42272d)" stroke-linejoin="miter" stroke-linecap="butt" stroke-miterlimit="4" stroke-width="1.9104" d="M7.117 26.194h6.952c0.21 0 0.38 0.17 0.38 0.38v3.057c0 0.21-0.17 0.38-0.38 0.38h-6.952c-0.21 0-0.38-0.17-0.38-0.38v-3.057c0-0.21 0.17-0.38 0.38-0.38z"></path>
<path d="M8.566 28.335c0 0.176-0.142 0.318-0.318 0.318s-0.318-0.142-0.318-0.318c0-0.176 0.142-0.318 0.318-0.318s0.318 0.142 0.318 0.318z"></path>
<path fill="none" stroke="#42272d" style="stroke: var(--color1, #42272d)" stroke-linejoin="miter" stroke-linecap="round" stroke-miterlimit="4" stroke-width="0.9552" d="M9.202 28.335h3.816"></path>
<path fill="none" stroke="#42272d" style="stroke: var(--color1, #42272d)" stroke-linejoin="miter" stroke-linecap="round" stroke-miterlimit="4" stroke-width="0.9552" d="M12.91 15.696l0.244-2.099c0.092-0.794 0.29-1.572 0.588-2.313l0.195-0.486c0.329-0.82 0.823-1.563 1.45-2.184v0c0.972-0.963 2.225-1.592 3.578-1.797l0.95-0.144"></path>
<path fill="none" stroke="#42272d" style="stroke: var(--color1, #42272d)" stroke-linejoin="miter" stroke-linecap="round" stroke-miterlimit="4" stroke-width="0.9552" d="M14.524 16.029l0.301-0.772c0.146-0.374 0.363-0.717 0.639-1.009v0c0.349-0.37 0.784-0.649 1.265-0.813l0.094-0.032c0.58-0.197 1.201-0.24 1.802-0.124l0.981 0.189"></path>
<path fill="none" stroke="#42272d" style="stroke: var(--color1, #42272d)" stroke-linejoin="miter" stroke-linecap="round" stroke-miterlimit="4" stroke-width="0.9552" d="M7.351 7.423l0.552 0.649c0.645 0.759 1.188 1.6 1.613 2.501l0.29 0.615c0.394 0.834 0.684 1.713 0.865 2.617l0.445 2.225"></path>
<path fill="none" stroke="#42272d" style="stroke: var(--color1, #42272d)" stroke-linejoin="miter" stroke-linecap="butt" stroke-miterlimit="4" stroke-width="0.9552" d="M5.24 3.237c0.701 0.704 0.977 1.264 1.098 1.805 0.099 0.442 0.1 0.874 0.102 1.422 0 0.017 0 0.034 0 0.051-0.126-0.004-0.247-0.008-0.36-0.011-0.15-0.004-0.288-0.008-0.412-0.013-0.354-0.014-0.626-0.038-0.875-0.097-0.469-0.11-0.92-0.359-1.639-1.081-0.717-0.72-1.062-1.301-1.213-1.846-0.126-0.454-0.13-0.922-0.055-1.487 0.536-0.039 1.009-0.036 1.48 0.084 0.565 0.143 1.17 0.465 1.873 1.172z"></path>
<path fill="none" stroke="#42272d" style="stroke: var(--color1, #42272d)" stroke-linejoin="miter" stroke-linecap="butt" stroke-miterlimit="4" stroke-width="0.9552" d="M4.008 7.525c1.015 0.066 1.617 0.254 2.083 0.504 0.316 0.169 0.575 0.367 0.872 0.607-0.019 0.011-0.038 0.022-0.056 0.033-0.113 0.067-0.218 0.129-0.312 0.183-0.269 0.155-0.487 0.269-0.713 0.353-0.437 0.162-0.961 0.235-1.995 0.167-1.031-0.068-1.697-0.233-2.193-0.472-0.341-0.164-0.618-0.372-0.888-0.636 0.305-0.211 0.61-0.384 0.973-0.513 0.527-0.187 1.211-0.292 2.228-0.225z"></path>
<path fill="none" stroke="#42272d" style="stroke: var(--color1, #42272d)" stroke-linejoin="miter" stroke-linecap="butt" stroke-miterlimit="4" stroke-width="0.9552" d="M10.639 4.632c-0.24 1.034-0.535 1.623-0.872 2.063-0.233 0.304-0.487 0.542-0.793 0.815-0.012-0.030-0.023-0.059-0.034-0.088-0.050-0.128-0.096-0.246-0.135-0.352-0.114-0.303-0.194-0.547-0.242-0.795-0.094-0.481-0.079-1.034 0.165-2.086 0.244-1.049 0.526-1.709 0.857-2.18 0.232-0.331 0.499-0.585 0.826-0.823 0.17 0.357 0.301 0.707 0.374 1.112 0.104 0.577 0.095 1.299-0.145 2.335z"></path>
<path fill="none" stroke="#42272d" style="stroke: var(--color1, #42272d)" stroke-linejoin="miter" stroke-linecap="butt" stroke-miterlimit="4" stroke-width="0.9552" d="M13.197 8.544c0.111 0.623 0.068 0.999-0.030 1.3-0.060 0.184-0.14 0.344-0.242 0.527-0.049-0.043-0.095-0.083-0.135-0.119-0.157-0.141-0.267-0.25-0.356-0.364-0.164-0.211-0.294-0.491-0.409-1.136-0.114-0.642-0.096-1.056-0.009-1.372 0.053-0.192 0.136-0.365 0.255-0.544 0.167 0.132 0.31 0.268 0.434 0.433 0.203 0.269 0.38 0.649 0.491 1.275z"></path>
<path fill="none" stroke="#42272d" style="stroke: var(--color1, #42272d)" stroke-linejoin="miter" stroke-linecap="butt" stroke-miterlimit="4" stroke-width="0.9552" d="M7.403 13.674c-0.651-0.127-1.006-0.306-1.267-0.511-0.155-0.121-0.28-0.252-0.418-0.41 0.056-0.028 0.107-0.053 0.154-0.076 0.194-0.094 0.342-0.157 0.487-0.198 0.272-0.077 0.598-0.094 1.27 0.037 0.669 0.13 1.070 0.3 1.35 0.5 0.166 0.119 0.303 0.258 0.432 0.43-0.186 0.104-0.369 0.185-0.574 0.24-0.341 0.091-0.781 0.116-1.435-0.011z"></path>
<path fill="none" stroke="#42272d" style="stroke: var(--color1, #42272d)" stroke-linejoin="miter" stroke-linecap="butt" stroke-miterlimit="4" stroke-width="0.9552" d="M17.722 4.646c-0.317 0.844-0.657 1.287-1.025 1.596-0.283 0.238-0.585 0.403-0.966 0.605-0.021-0.060-0.042-0.118-0.062-0.174-0.044-0.121-0.084-0.233-0.118-0.332-0.099-0.287-0.165-0.511-0.198-0.73-0.062-0.413-0.015-0.872 0.31-1.738 0.324-0.863 0.658-1.369 1.022-1.705 0.278-0.257 0.596-0.435 0.994-0.59 0.172 0.373 0.298 0.72 0.349 1.106 0.067 0.504 0.012 1.115-0.306 1.962z"></path>
<path fill="none" stroke="#42272d" style="stroke: var(--color1, #42272d)" stroke-linejoin="miter" stroke-linecap="butt" stroke-miterlimit="4" stroke-width="0.9552" d="M19.213 11.377c-1.058-0.193-1.656-0.504-2.105-0.886-0.363-0.309-0.635-0.665-0.978-1.114-0.004-0.006-0.009-0.011-0.013-0.017 0.103-0.061 0.201-0.119 0.294-0.175 0.133-0.079 0.255-0.152 0.366-0.216 0.316-0.183 0.569-0.315 0.825-0.405 0.487-0.172 1.046-0.216 2.127-0.019 1.078 0.196 1.749 0.485 2.228 0.855 0.391 0.302 0.683 0.678 0.964 1.169-0.433 0.319-0.842 0.573-1.323 0.734-0.589 0.197-1.325 0.267-2.386 0.073z"></path>
</symbol>

<symbol id="icon-second" viewBox="0 0 44 32">
<path fill="none" stroke="#42272d" style="stroke: var(--color1, #42272d)" stroke-linejoin="miter" stroke-linecap="round" stroke-miterlimit="4" stroke-width="0.6576" d="M14.867 24.623l0.178-1.533c0.064-0.553 0.202-1.096 0.41-1.613l0.15-0.373c0.236-0.589 0.591-1.123 1.042-1.569v0c0.698-0.692 1.598-1.144 2.57-1.291l0.683-0.104"></path>
<path fill="none" stroke="#42272d" style="stroke: var(--color1, #42272d)" stroke-linejoin="miter" stroke-linecap="round" stroke-miterlimit="4" stroke-width="0.6576" d="M10.874 18.68l0.565 0.665c0.351 0.413 0.647 0.871 0.878 1.362l0.423 0.896c0.214 0.454 0.373 0.933 0.471 1.425l0.367 1.835"></path>
<path fill="none" stroke="#42272d" style="stroke: var(--color1, #42272d)" stroke-linejoin="miter" stroke-linecap="butt" stroke-miterlimit="4" stroke-width="0.6576" d="M9.367 15.663c0.505 0.508 0.705 0.912 0.793 1.304 0.071 0.319 0.072 0.631 0.074 1.026 0 0.017 0 0.034 0 0.051-0.096-0.003-0.187-0.006-0.273-0.008-0.108-0.003-0.207-0.006-0.296-0.009-0.254-0.010-0.451-0.028-0.631-0.070-0.34-0.080-0.667-0.261-1.184-0.781-0.516-0.519-0.765-0.937-0.875-1.332-0.092-0.332-0.094-0.673-0.038-1.085 0.391-0.029 0.735-0.027 1.080 0.060 0.409 0.104 0.845 0.337 1.352 0.846z"></path>
<path fill="none" stroke="#42272d" style="stroke: var(--color1, #42272d)" stroke-linejoin="miter" stroke-linecap="butt" stroke-miterlimit="4" stroke-width="0.6576" d="M8.473 18.739c0.731 0.048 1.165 0.183 1.502 0.363 0.234 0.125 0.424 0.272 0.645 0.451-0.020 0.012-0.039 0.023-0.058 0.034-0.082 0.048-0.157 0.093-0.224 0.132-0.193 0.111-0.351 0.194-0.515 0.254-0.317 0.118-0.695 0.17-1.439 0.121-0.741-0.049-1.222-0.167-1.58-0.34-0.252-0.121-0.455-0.275-0.654-0.472 0.225-0.156 0.448-0.285 0.716-0.38 0.381-0.135 0.874-0.21 1.607-0.163z"></path>
<path fill="none" stroke="#42272d" style="stroke: var(--color1, #42272d)" stroke-linejoin="miter" stroke-linecap="butt" stroke-miterlimit="4" stroke-width="0.6576" d="M13.25 16.678c-0.173 0.744-0.385 1.169-0.629 1.487-0.172 0.224-0.36 0.399-0.587 0.601-0.011-0.028-0.022-0.055-0.032-0.082-0.036-0.092-0.069-0.177-0.097-0.253-0.082-0.218-0.14-0.394-0.175-0.574-0.068-0.348-0.057-0.748 0.119-1.505 0.175-0.755 0.379-1.23 0.618-1.571 0.171-0.244 0.369-0.43 0.61-0.604 0.126 0.263 0.223 0.519 0.277 0.818 0.075 0.416 0.069 0.938-0.104 1.683z"></path>
<path fill="none" stroke="#42272d" style="stroke: var(--color1, #42272d)" stroke-linejoin="miter" stroke-linecap="butt" stroke-miterlimit="4" stroke-width="0.6576" d="M15.087 19.482c0.080 0.449 0.049 0.722-0.022 0.941-0.045 0.138-0.106 0.258-0.183 0.396-0.041-0.035-0.078-0.068-0.11-0.097-0.113-0.101-0.193-0.18-0.258-0.263-0.12-0.154-0.214-0.358-0.296-0.822-0.082-0.462-0.069-0.762-0.006-0.992 0.040-0.144 0.103-0.273 0.194-0.408 0.126 0.098 0.233 0.199 0.327 0.323 0.147 0.196 0.276 0.471 0.356 0.922z"></path>
<path fill="none" stroke="#42272d" style="stroke: var(--color1, #42272d)" stroke-linejoin="miter" stroke-linecap="butt" stroke-miterlimit="4" stroke-width="0.6576" d="M10.908 23.184c-0.469-0.091-0.727-0.221-0.916-0.37-0.116-0.091-0.21-0.19-0.314-0.31 0.046-0.023 0.089-0.044 0.127-0.063 0.14-0.068 0.247-0.114 0.352-0.143 0.198-0.056 0.435-0.068 0.919 0.026 0.481 0.094 0.772 0.217 0.975 0.362 0.125 0.089 0.227 0.194 0.323 0.325-0.14 0.079-0.276 0.141-0.429 0.182-0.248 0.066-0.566 0.084-1.037-0.008z"></path>
<path fill="none" stroke="#42272d" style="stroke: var(--color1, #42272d)" stroke-linejoin="miter" stroke-linecap="butt" stroke-miterlimit="4" stroke-width="0.6576" d="M18.082 16.571c-0.229 0.608-0.474 0.928-0.741 1.153-0.208 0.175-0.431 0.295-0.711 0.444-0.017-0.049-0.034-0.095-0.050-0.14-0.031-0.087-0.060-0.168-0.085-0.239-0.071-0.206-0.119-0.369-0.143-0.527-0.045-0.3-0.010-0.633 0.224-1.256 0.233-0.621 0.474-0.987 0.738-1.23 0.204-0.189 0.438-0.319 0.731-0.431 0.127 0.273 0.22 0.527 0.257 0.811 0.049 0.365 0.009 0.806-0.221 1.417z"></path>
<path fill="none" stroke="#42272d" style="stroke: var(--color1, #42272d)" stroke-linejoin="miter" stroke-linecap="butt" stroke-miterlimit="4" stroke-width="1.1273" d="M3.929 2.003c0-0.726 0.589-1.315 1.315-1.315h12.776c2.283 0 4.133 1.851 4.133 4.133v22.17c0 0.726-0.589 1.315-1.315 1.315h-15.594c-0.726 0-1.315-0.589-1.315-1.315v-24.988z"></path>
<path fill="none" stroke="#42272d" style="stroke: var(--color1, #42272d)" stroke-linejoin="miter" stroke-linecap="butt" stroke-miterlimit="4" stroke-width="1.1273" d="M40.379 2.003c0-0.726-0.589-1.315-1.315-1.315h-12.776c-2.283 0-4.133 1.851-4.133 4.133v22.17c0 0.726 0.589 1.315 1.315 1.315h15.594c0.726 0 1.315-0.589 1.315-1.315v-24.988z"></path>
<path fill="none" stroke="#42272d" style="stroke: var(--color1, #42272d)" stroke-linejoin="miter" stroke-linecap="round" stroke-miterlimit="4" stroke-width="1.1273" d="M25.348 5.572h12.024"></path>
<path fill="none" stroke="#42272d" style="stroke: var(--color1, #42272d)" stroke-linejoin="miter" stroke-linecap="round" stroke-miterlimit="4" stroke-width="1.1273" d="M28.166 9.894h9.206"></path>
<path fill="none" stroke="#42272d" style="stroke: var(--color1, #42272d)" stroke-linejoin="miter" stroke-linecap="round" stroke-miterlimit="4" stroke-width="1.1273" d="M25.348 14.215h12.024"></path>
<path fill="none" stroke="#42272d" style="stroke: var(--color1, #42272d)" stroke-linejoin="miter" stroke-linecap="round" stroke-miterlimit="4" stroke-width="1.1273" d="M18.96 5.572h-12.024"></path>
<path fill="none" stroke="#42272d" style="stroke: var(--color1, #42272d)" stroke-linejoin="miter" stroke-linecap="round" stroke-miterlimit="4" stroke-width="1.1273" d="M25.348 18.536h7.891"></path>
<path fill="none" stroke="#42272d" style="stroke: var(--color1, #42272d)" stroke-linejoin="miter" stroke-linecap="round" stroke-miterlimit="4" stroke-width="1.1273" d="M18.96 9.894h-7.891"></path>
<path fill="none" stroke="#42272d" style="stroke: var(--color1, #42272d)" stroke-linejoin="miter" stroke-linecap="round" stroke-miterlimit="4" stroke-width="1.1273" d="M31.36 22.858h6.012"></path>
<path fill="none" stroke="#42272d" style="stroke: var(--color1, #42272d)" stroke-linejoin="miter" stroke-linecap="round" stroke-miterlimit="4" stroke-width="1.1273" d="M27.227 22.858h2.067"></path>
<path fill="none" stroke="#42272d" style="stroke: var(--color1, #42272d)" stroke-linejoin="miter" stroke-linecap="round" stroke-miterlimit="4" stroke-width="1.1273" d="M35.306 18.536h2.067"></path>
<path fill="none" stroke="#42272d" style="stroke: var(--color1, #42272d)" stroke-linejoin="miter" stroke-linecap="round" stroke-miterlimit="4" stroke-width="1.1273" d="M9.002 9.894h-2.067"></path>
<path d="M25.912 9.894c0 0.311-0.252 0.564-0.564 0.564s-0.564-0.252-0.564-0.564c0-0.311 0.252-0.564 0.564-0.564s0.564 0.252 0.564 0.564z"></path>
<path d="M25.912 22.858c0 0.311-0.252 0.564-0.564 0.564s-0.564-0.252-0.564-0.564c0-0.311 0.252-0.564 0.564-0.564s0.564 0.252 0.564 0.564z"></path>
<path d="M0.359 22.67c0 0.311 0.252 0.564 0.564 0.564s0.564-0.252 0.564-0.564h-1.127zM1.487 26.991c0-0.311-0.252-0.564-0.564-0.564s-0.564 0.252-0.564 0.564h1.127zM42.821 4.351v25.082h1.127v-25.082h-1.127zM2.802 3.13h0.752v-1.127h-0.752v1.127zM39.815 3.13h1.785v-1.127h-1.785v1.127zM1.487 22.67v-18.225h-1.127v18.225h1.127zM1.487 29.434v-2.442h-1.127v2.442h1.127zM19.899 30.749h-17.097v1.127h17.097v-1.127zM41.506 30.749h-16.722v1.127h16.722v-1.127zM0.359 29.434c0 1.349 1.094 2.442 2.442 2.442v-1.127c-0.726 0-1.315-0.589-1.315-1.315h-1.127zM42.821 29.434c0 0.726-0.589 1.315-1.315 1.315v1.127c1.349 0 2.442-1.094 2.442-2.442h-1.127zM43.948 4.351c0-1.297-1.051-2.349-2.349-2.349v1.127c0.674 0 1.221 0.547 1.221 1.221h1.127zM2.802 2.003c-1.349 0-2.442 1.094-2.442 2.442h1.127c0-0.726 0.589-1.315 1.315-1.315v-1.127z"></path>
<path fill="none" stroke="#42272d" style="stroke: var(--color1, #42272d)" stroke-linejoin="miter" stroke-linecap="butt" stroke-miterlimit="4" stroke-width="1.1273" d="M24.972 31.876c0-1.038-1.22-1.879-2.724-1.879s-2.724 0.841-2.724 1.879"></path>
</symbol>

<symbol id="icon-third" viewBox="0 0 33 32">
<path stroke-linejoin="miter" stroke-linecap="round" stroke-miterlimit="4" stroke-width="0.6076" d="M12.292 27.631l0.199-1.711c0.050-0.431 0.157-0.853 0.319-1.256l0.218-0.542c0.236-0.587 0.589-1.119 1.039-1.564v0c0.696-0.689 1.593-1.14 2.562-1.287l0.681-0.103"></path>
<path stroke-linejoin="miter" stroke-linecap="round" stroke-miterlimit="4" stroke-width="0.6076" d="M13.447 27.87l0.216-0.553c0.105-0.268 0.26-0.513 0.457-0.722v0c0.25-0.265 0.561-0.465 0.906-0.582l0.068-0.023c0.415-0.141 0.86-0.172 1.291-0.089l0.703 0.135"></path>
<path stroke-linejoin="miter" stroke-linecap="round" stroke-miterlimit="4" stroke-width="0.6076" d="M8.311 21.707l0.679 0.799c0.274 0.322 0.504 0.678 0.684 1.060l0.568 1.204c0.167 0.354 0.29 0.726 0.367 1.11l0.398 1.991"></path>
<path stroke-linejoin="miter" stroke-linecap="butt" stroke-miterlimit="4" stroke-width="0.6076" d="M6.826 18.682c0.506 0.509 0.708 0.916 0.797 1.311 0.072 0.321 0.073 0.636 0.074 1.030 0 0.024 0 0.049 0 0.074-0.104-0.004-0.204-0.006-0.296-0.009-0.108-0.003-0.207-0.006-0.296-0.009-0.254-0.010-0.452-0.028-0.634-0.070-0.345-0.081-0.675-0.265-1.192-0.785-0.516-0.519-0.768-0.94-0.879-1.339-0.095-0.34-0.094-0.69-0.036-1.111 0.398-0.030 0.751-0.030 1.103 0.059 0.413 0.105 0.851 0.339 1.359 0.85z"></path>
<path stroke-linejoin="miter" stroke-linecap="butt" stroke-miterlimit="4" stroke-width="0.6076" d="M5.919 21.742c0.731 0.048 1.168 0.183 1.507 0.365 0.244 0.131 0.442 0.285 0.673 0.473-0.030 0.017-0.059 0.035-0.087 0.051-0.081 0.048-0.157 0.093-0.224 0.132-0.193 0.111-0.352 0.194-0.517 0.255-0.32 0.119-0.702 0.171-1.445 0.122-0.741-0.049-1.224-0.167-1.585-0.342-0.262-0.127-0.473-0.288-0.679-0.495 0.233-0.164 0.464-0.299 0.744-0.399 0.384-0.136 0.879-0.211 1.611-0.163z"></path>
<path stroke-linejoin="miter" stroke-linecap="butt" stroke-miterlimit="4" stroke-width="0.6076" d="M10.703 19.717c-0.173 0.744-0.386 1.172-0.631 1.492-0.179 0.234-0.376 0.414-0.614 0.625-0.015-0.039-0.030-0.077-0.044-0.114-0.036-0.092-0.069-0.177-0.097-0.253-0.082-0.217-0.14-0.395-0.175-0.576-0.069-0.352-0.057-0.754 0.119-1.51 0.175-0.754 0.379-1.231 0.62-1.575 0.178-0.254 0.384-0.446 0.637-0.625 0.132 0.272 0.235 0.537 0.291 0.847 0.076 0.419 0.069 0.942-0.104 1.688z"></path>
<path stroke-linejoin="miter" stroke-linecap="butt" stroke-miterlimit="4" stroke-width="0.6076" d="M12.534 22.503c0.080 0.451 0.050 0.727-0.023 0.949-0.048 0.148-0.114 0.275-0.199 0.425-0-0-0.001-0.001-0.001-0.001-0.049-0.043-0.093-0.081-0.131-0.115-0.113-0.101-0.194-0.181-0.26-0.266-0.123-0.158-0.218-0.366-0.3-0.83-0.082-0.463-0.070-0.766-0.006-0.999 0.043-0.154 0.111-0.292 0.211-0.435 0.136 0.104 0.251 0.21 0.35 0.342 0.149 0.199 0.279 0.477 0.359 0.93z"></path>
<path stroke-linejoin="miter" stroke-linecap="butt" stroke-miterlimit="4" stroke-width="0.6076" d="M8.341 26.221c-0.471-0.092-0.731-0.222-0.924-0.373-0.125-0.098-0.224-0.205-0.337-0.336 0.057-0.028 0.109-0.054 0.155-0.077 0.14-0.068 0.248-0.114 0.355-0.145 0.203-0.057 0.443-0.069 0.927 0.026 0.482 0.094 0.775 0.217 0.982 0.365 0.134 0.096 0.242 0.209 0.344 0.351-0.149 0.086-0.293 0.153-0.457 0.197-0.251 0.067-0.572 0.085-1.045-0.007z"></path>
<path stroke-linejoin="miter" stroke-linecap="butt" stroke-miterlimit="4" stroke-width="0.6076" d="M15.774 19.731c-0.229 0.609-0.476 0.932-0.746 1.159-0.215 0.18-0.446 0.304-0.738 0.458-0.020-0.058-0.040-0.113-0.059-0.166-0.031-0.087-0.060-0.167-0.085-0.239-0.071-0.206-0.119-0.37-0.143-0.53-0.046-0.305-0.010-0.641 0.224-1.264 0.233-0.621 0.475-0.99 0.742-1.236 0.211-0.195 0.454-0.328 0.758-0.443 0.132 0.281 0.229 0.543 0.268 0.836 0.049 0.369 0.008 0.813-0.221 1.424z"></path>
<path stroke-linejoin="miter" stroke-linecap="butt" stroke-miterlimit="4" stroke-width="0.6076" d="M16.799 24.576c-0.763-0.139-1.198-0.364-1.525-0.643-0.263-0.224-0.462-0.484-0.708-0.806-0.011-0.015-0.022-0.029-0.034-0.044 0.087-0.051 0.169-0.1 0.247-0.146 0.095-0.057 0.183-0.109 0.263-0.156 0.227-0.131 0.411-0.227 0.597-0.293 0.358-0.126 0.765-0.157 1.543-0.015 0.775 0.141 1.262 0.35 1.612 0.62 0.293 0.226 0.509 0.509 0.717 0.878-0.322 0.239-0.625 0.431-0.985 0.551-0.429 0.144-0.963 0.193-1.728 0.054z"></path>
<path stroke-linejoin="miter" stroke-linecap="butt" stroke-miterlimit="4" stroke-width="1.2152" d="M32.008 19.949c0 3.020-2.448 5.468-5.468 5.468s-5.468-2.448-5.468-5.468c0-3.020 2.448-5.468 5.468-5.468s5.468 2.448 5.468 5.468z"></path>
<path stroke-linejoin="miter" stroke-linecap="round" stroke-miterlimit="4" stroke-width="1.2152" d="M26.65 17.188v2.872"></path>
<path stroke-linejoin="miter" stroke-linecap="round" stroke-miterlimit="4" stroke-width="1.2152" d="M27.091 20.060h1.988"></path>
<path stroke-linejoin="miter" stroke-linecap="round" stroke-miterlimit="4" stroke-width="1.2152" d="M6.287 4.354h-3.646c-1.119 0-2.025 0.907-2.025 2.025v22.886c0 1.119 0.907 2.025 2.025 2.025h19.646c1.119 0 2.025-0.907 2.025-2.025v-1.924M18.438 4.354h3.848c1.119 0 2.025 0.907 2.025 2.025v6.278"></path>
<path stroke-linejoin="miter" stroke-linecap="round" stroke-miterlimit="4" stroke-width="1.2152" d="M10.097 2.329h-1.177c-0.447 0-0.81 0.363-0.81 0.81v2.025c0 0.447 0.363 0.81 0.81 0.81h6.684c0.447 0 0.81-0.363 0.81-0.81v-2.025c0-0.447-0.363-0.81-0.81-0.81h-1.248"></path>
<path stroke-linejoin="miter" stroke-linecap="butt" stroke-miterlimit="4" stroke-width="1.2152" d="M14.59 2.734c0-1.119-1.043-2.025-2.329-2.025s-2.329 0.907-2.329 2.025"></path>
<path stroke-linejoin="miter" stroke-linecap="round" stroke-miterlimit="4" stroke-width="1.2152" d="M4.059 10.932l1.686 2.31"></path>
<path stroke-linejoin="miter" stroke-linecap="round" stroke-miterlimit="4" stroke-width="1.2152" d="M8.919 9.823l-3.118 3.49"></path>
<path stroke-linejoin="miter" stroke-linecap="round" stroke-miterlimit="4" stroke-width="1.2152" d="M10.742 12.658h9.721"></path>
</symbol>

<symbol id="icon-fourth" viewBox="0 0 33 32">
<path fill="none" stroke="#42272d" style="stroke: var(--color1, #42272d)" stroke-linejoin="miter" stroke-linecap="round" stroke-miterlimit="4" stroke-width="0.9846" d="M14.755 19.54v10.896c0 0.519-0.421 0.939-0.939 0.939h-8.078c-0.519 0-0.939-0.421-0.939-0.939v-5.155"></path>
<path fill="none" stroke="#42272d" style="stroke: var(--color1, #42272d)" stroke-linejoin="miter" stroke-linecap="butt" stroke-miterlimit="4" stroke-width="0.9846" d="M5.44 19.418c0.084-0.087 0.2-0.137 0.322-0.137h8.663c0.394 0 0.595 0.473 0.322 0.757l-3.075 3.194c-0.084 0.088-0.2 0.137-0.322 0.137h-8.663c-0.394 0-0.595-0.473-0.322-0.757l3.075-3.194z"></path>
<path fill="none" stroke="#42272d" style="stroke: var(--color1, #42272d)" stroke-linejoin="miter" stroke-linecap="round" stroke-miterlimit="4" stroke-width="0.9846" d="M17 19.352h-1.714c-0.517 0-0.761 0.637-0.377 0.983l3.346 3.006c0.103 0.093 0.238 0.144 0.377 0.144h8.929c0.517 0 0.761-0.637 0.377-0.983l-3.346-3.006c-0.103-0.093-0.238-0.144-0.377-0.144h-1.244"></path>
<path fill="none" stroke="#42272d" style="stroke: var(--color1, #42272d)" stroke-linejoin="miter" stroke-linecap="round" stroke-miterlimit="4" stroke-width="0.9846" d="M14.755 19.54v11.835h10.332c0.519 0 0.939-0.421 0.939-0.939v-4.978"></path>
<path d="M20.766 19.258c0 0.363-0.294 0.657-0.657 0.657s-0.657-0.294-0.657-0.657c0-0.363 0.294-0.657 0.657-0.657s0.657 0.294 0.657 0.657z"></path>
<path fill="none" stroke="#42272d" style="stroke: var(--color1, #42272d)" stroke-linejoin="miter" stroke-linecap="round" stroke-miterlimit="4" stroke-width="0.9846" d="M27.323 3.428l0.516-0.755c0.244-0.357 0.649-0.571 1.082-0.571v0c1.232 0 1.906 1.437 1.121 2.386v0l-1.386 1.485-1.333 1.273"></path>
<path fill="none" stroke="#42272d" style="stroke: var(--color1, #42272d)" stroke-linejoin="miter" stroke-linecap="round" stroke-miterlimit="4" stroke-width="0.9846" d="M27.323 3.428l-0.516-0.755c-0.244-0.357-0.649-0.571-1.082-0.571v0c-1.232 0-1.906 1.437-1.121 2.386v0l1.386 1.485 1.333 1.273"></path>
<path fill="none" stroke="#42272d" style="stroke: var(--color1, #42272d)" stroke-linejoin="miter" stroke-linecap="round" stroke-miterlimit="4" stroke-width="0.9846" d="M15.754 16.145l0.251-2.163c0.095-0.818 0.299-1.62 0.606-2.385l0.201-0.501c0.339-0.845 0.848-1.611 1.495-2.252v0c1.002-0.992 2.293-1.641 3.688-1.853l0.98-0.149"></path>
<path fill="none" stroke="#42272d" style="stroke: var(--color1, #42272d)" stroke-linejoin="miter" stroke-linecap="round" stroke-miterlimit="4" stroke-width="0.9846" d="M17.418 16.489l0.311-0.796c0.151-0.386 0.374-0.739 0.658-1.040v0c0.36-0.381 0.808-0.669 1.304-0.838l0.097-0.033c0.598-0.203 1.238-0.247 1.858-0.128l1.012 0.195"></path>
<path fill="none" stroke="#42272d" style="stroke: var(--color1, #42272d)" stroke-linejoin="miter" stroke-linecap="round" stroke-miterlimit="4" stroke-width="0.9846" d="M10.025 7.618l0.569 0.67c0.665 0.782 1.224 1.649 1.663 2.578l0.299 0.634c0.406 0.86 0.705 1.765 0.892 2.697l0.459 2.293"></path>
<path fill="none" stroke="#42272d" style="stroke: var(--color1, #42272d)" stroke-linejoin="miter" stroke-linecap="butt" stroke-miterlimit="4" stroke-width="0.9846" d="M7.848 3.303c0.723 0.726 1.007 1.303 1.132 1.86 0.102 0.455 0.104 0.901 0.105 1.466 0 0.018 0 0.035 0 0.053-0.13-0.004-0.254-0.008-0.371-0.011-0.155-0.004-0.297-0.008-0.424-0.014-0.364-0.015-0.646-0.040-0.902-0.1-0.483-0.114-0.948-0.37-1.69-1.115-0.739-0.742-1.094-1.341-1.251-1.903-0.13-0.468-0.134-0.95-0.057-1.533 0.553-0.040 1.040-0.037 1.526 0.087 0.583 0.148 1.205 0.48 1.931 1.209z"></path>
<path fill="none" stroke="#42272d" style="stroke: var(--color1, #42272d)" stroke-linejoin="miter" stroke-linecap="butt" stroke-miterlimit="4" stroke-width="0.9846" d="M6.579 7.723c1.046 0.068 1.667 0.262 2.147 0.519 0.326 0.174 0.592 0.378 0.899 0.626-0.020 0.012-0.039 0.023-0.058 0.034-0.117 0.069-0.225 0.133-0.321 0.188-0.277 0.16-0.502 0.277-0.735 0.363-0.451 0.167-0.991 0.242-2.056 0.172-1.063-0.070-1.749-0.24-2.26-0.486-0.351-0.169-0.637-0.383-0.915-0.656 0.314-0.217 0.629-0.396 1.003-0.529 0.543-0.193 1.248-0.301 2.297-0.232z"></path>
<path fill="none" stroke="#42272d" style="stroke: var(--color1, #42272d)" stroke-linejoin="miter" stroke-linecap="butt" stroke-miterlimit="4" stroke-width="0.9846" d="M13.413 4.741c-0.247 1.065-0.552 1.673-0.899 2.126-0.24 0.314-0.502 0.558-0.817 0.84-0.012-0.031-0.024-0.061-0.035-0.091-0.051-0.132-0.098-0.253-0.14-0.362-0.117-0.312-0.2-0.564-0.25-0.82-0.097-0.495-0.082-1.066 0.17-2.15 0.251-1.081 0.542-1.761 0.884-2.247 0.239-0.341 0.515-0.603 0.851-0.848 0.175 0.368 0.31 0.729 0.386 1.146 0.107 0.594 0.098 1.339-0.15 2.407z"></path>
<path fill="none" stroke="#42272d" style="stroke: var(--color1, #42272d)" stroke-linejoin="miter" stroke-linecap="butt" stroke-miterlimit="4" stroke-width="0.9846" d="M16.050 8.773c0.114 0.642 0.070 1.030-0.031 1.34-0.062 0.189-0.144 0.354-0.249 0.543-0.051-0.045-0.098-0.086-0.139-0.123-0.162-0.145-0.276-0.257-0.367-0.375-0.169-0.218-0.303-0.506-0.421-1.171-0.117-0.661-0.099-1.089-0.009-1.414 0.055-0.198 0.14-0.376 0.263-0.561 0.173 0.136 0.319 0.276 0.447 0.446 0.209 0.277 0.392 0.669 0.506 1.315z"></path>
<path fill="none" stroke="#42272d" style="stroke: var(--color1, #42272d)" stroke-linejoin="miter" stroke-linecap="butt" stroke-miterlimit="4" stroke-width="0.9846" d="M10.078 14.061c-0.671-0.131-1.037-0.316-1.306-0.527-0.159-0.125-0.289-0.26-0.431-0.423 0.057-0.029 0.11-0.055 0.158-0.078 0.2-0.097 0.352-0.162 0.502-0.205 0.28-0.079 0.616-0.097 1.309 0.038 0.689 0.134 1.103 0.31 1.392 0.516 0.171 0.122 0.312 0.265 0.446 0.443-0.192 0.108-0.38 0.191-0.591 0.247-0.351 0.093-0.805 0.12-1.479-0.012z"></path>
<path fill="none" stroke="#42272d" style="stroke: var(--color1, #42272d)" stroke-linejoin="miter" stroke-linecap="butt" stroke-miterlimit="4" stroke-width="0.9846" d="M20.714 4.755c-0.327 0.87-0.677 1.327-1.057 1.645-0.292 0.245-0.603 0.415-0.996 0.623-0.022-0.062-0.044-0.122-0.064-0.18-0.045-0.125-0.086-0.24-0.121-0.342-0.102-0.296-0.17-0.527-0.204-0.752-0.064-0.426-0.016-0.899 0.32-1.792 0.334-0.889 0.678-1.411 1.053-1.758 0.287-0.265 0.614-0.448 1.025-0.608 0.178 0.385 0.307 0.742 0.36 1.14 0.069 0.52 0.012 1.15-0.316 2.023z"></path>
<path fill="none" stroke="#42272d" style="stroke: var(--color1, #42272d)" stroke-linejoin="miter" stroke-linecap="butt" stroke-miterlimit="4" stroke-width="0.9846" d="M22.251 11.693c-1.090-0.199-1.707-0.52-2.17-0.914-0.374-0.319-0.655-0.686-1.008-1.148-0.004-0.006-0.009-0.011-0.013-0.017 0.106-0.063 0.207-0.123 0.303-0.18 0.137-0.082 0.263-0.157 0.377-0.223 0.325-0.188 0.587-0.324 0.85-0.417 0.502-0.177 1.078-0.223 2.192-0.020 1.111 0.203 1.802 0.5 2.297 0.882 0.403 0.311 0.703 0.699 0.994 1.205-0.446 0.329-0.868 0.591-1.363 0.757-0.607 0.203-1.366 0.275-2.46 0.075z"></path>
</symbol>



</defs>
</svg>

