<svg aria-hidden="true" style="position: absolute; width: 0; height: 0; overflow: hidden;" version="1.1" xmlns="http://www.w3.org/2000/svg" xmlns:xlink="http://www.w3.org/1999/xlink">
<defs>

<symbol id="icon-cart" viewBox="0 0 32 32">
<path fill="#fff" style="fill: var(--color1, #fff)" d="M0 1.389c0-0.583 0.473-1.056 1.056-1.056h3.167c0.484 0 0.907 0.33 1.024 0.8l0.856 3.423h24.509c0.316 0 0.616 0.142 0.816 0.386s0.281 0.566 0.219 0.876l-2.111 10.556c-0.095 0.474-0.5 0.823-0.982 0.847l-19.838 0.995 0.605 3.229h18.124c0.583 0 1.055 0.473 1.055 1.055s-0.473 1.056-1.055 1.056h-19c-0.508 0-0.944-0.362-1.037-0.861l-3.161-16.858-0.848-3.392h-2.342c-0.583 0-1.056-0.473-1.056-1.056zM6.55 6.667l1.773 9.455 19.304-0.968 1.697-8.487h-22.774zM10.556 23.556c-2.332 0-4.222 1.89-4.222 4.222s1.89 4.222 4.222 4.222c2.332 0 4.222-1.89 4.222-4.222s-1.89-4.222-4.222-4.222zM25.333 23.556c-2.332 0-4.222 1.89-4.222 4.222s1.89 4.222 4.222 4.222c2.332 0 4.222-1.89 4.222-4.222s-1.89-4.222-4.222-4.222zM10.556 25.667c-1.166 0-2.111 0.945-2.111 2.111s0.945 2.111 2.111 2.111c1.166 0 2.111-0.945 2.111-2.111s-0.945-2.111-2.111-2.111zM25.333 25.667c-1.166 0-2.111 0.945-2.111 2.111s0.945 2.111 2.111 2.111c1.166 0 2.111-0.945 2.111-2.111s-0.945-2.111-2.111-2.111z"></path>
</symbol>

<symbol id="icon-logo" viewBox="0 0 50 32">
<path fill="#fff" style="fill: var(--color1, #fff)" d="M12.526 15.116c0.273-1.090 0.614-1.897 1.022-2.421s0.794-0.789 1.157-0.798c0.16-0.013 0.32 0.015 0.466 0.083s0.27 0.173 0.363 0.304c0.203 0.309 0.308 0.673 0.3 1.043 0.012 0.425-0.111 0.842-0.353 1.191-0.11 0.174-0.262 0.316-0.443 0.415s-0.383 0.149-0.588 0.148c-0.045-0.001-0.089-0.013-0.128-0.035s-0.071-0.054-0.095-0.093c-0.023-0.038-0.036-0.082-0.038-0.127s0.008-0.089 0.028-0.129c0.13-0.278 0.192-0.583 0.18-0.89-0.008-0.267-0.119-0.398-0.335-0.393-0.159 0-0.327 0.119-0.506 0.345-0.21 0.283-0.379 0.594-0.503 0.924-0.181 0.485-0.309 0.988-0.383 1.501-0.1 0.64-0.14 1.288-0.12 1.936 0 0.084 0.030 0.437 0.088 1.061-0.267 0.024-0.438 0.036-0.513 0.038-0.474 0.012-0.819-0.063-1.031-0.225s-0.324-0.434-0.333-0.818c0-0.165 0.068-0.81 0.216-1.931 0.131-0.886 0.197-1.78 0.197-2.676 0-0.212-0.018-0.419-0.037-0.62-0.057-0.6 0.711-0.915 1.068-0.429v0.009c0.254 0.36 0.391 0.79 0.393 1.23 0.014 0.453-0.011 0.907-0.073 1.357z"></path>
<path fill="#fff" style="fill: var(--color1, #fff)" d="M20.166 11.901c0.122-0.006 0.244-0.001 0.365 0.017 0.061 0.014 0.115 0.048 0.154 0.097s0.062 0.108 0.064 0.171c0.002 0.062-0.016 0.124-0.052 0.175s-0.088 0.089-0.147 0.107c-0.749 0.253-1.386 0.76-1.801 1.433-0.5 0.735-0.762 1.606-0.75 2.495 0.024 1 0.341 1.493 0.95 1.478 0.366-0.009 0.69-0.217 0.972-0.624 0.5-0.738 0.835-1.881 1.004-3.427 0.129-1.222 0.406-2.012 0.83-2.373h0.008c0.062-0.055 0.139-0.090 0.221-0.1s0.165 0.004 0.239 0.041c0.074 0.037 0.135 0.096 0.175 0.168s0.057 0.155 0.050 0.237c-0.038 0.409-0.056 0.821-0.052 1.232 0.083 3.334-0.212 5.848-0.884 7.541s-1.809 2.557-3.409 2.593c-0.649 0.015-1.162-0.146-1.538-0.482-0.17-0.136-0.309-0.307-0.409-0.5s-0.157-0.406-0.169-0.624c-0.036-1.445 1.789-1.951 2.039-1.786 0.161 0.105 0.561 0.672 0.762 0.75-0.212 0.049-1.2 0.21-1.369 0.797-0.231 0.791 1.143 1.667 2.32 0.191 0.221-0.308 0.39-0.651 0.5-1.014 0.319-0.933 0.476-2.2 0.47-3.801-0.188 0.667-0.551 1.271-1.050 1.751-0.482 0.446-0.977 0.675-1.484 0.687-0.287 0.022-0.574-0.031-0.834-0.153s-0.485-0.308-0.653-0.542c-0.35-0.48-0.534-1.099-0.552-1.858-0.027-0.863 0.172-1.717 0.578-2.479 0.398-0.832 1.080-1.495 1.924-1.87 0.483-0.21 1.004-0.321 1.531-0.329z"></path>
<path fill="#fff" style="fill: var(--color1, #fff)" d="M25.709 16.495c-0.006 0.333 0.077 0.662 0.242 0.951 0.062 0.111 0.153 0.203 0.264 0.266s0.237 0.092 0.365 0.087c0.392-0.009 0.759-0.247 1.101-0.714 0.377-0.54 0.651-1.145 0.807-1.784 0.188-0.668 0.278-1.359 0.267-2.053-0.011-0.411-0.029-0.773-0.057-1.085-0.007-0.065 0.001-0.131 0.021-0.193s0.054-0.12 0.097-0.169 0.097-0.088 0.157-0.115c0.060-0.027 0.124-0.041 0.19-0.042 0.425-0.011 0.748 0.060 0.968 0.213 0.221 0.15 0.336 0.435 0.347 0.843 0 0.157-0.085 0.803-0.254 1.939-0.153 0.899-0.23 1.809-0.233 2.721 0.005 0.219 0.025 0.437 0.059 0.653 0.021 0.123 0.003 0.25-0.053 0.361s-0.146 0.203-0.257 0.259c-0.111 0.057-0.238 0.076-0.361 0.055s-0.237-0.080-0.323-0.17l-0.018-0.021c-0.3-0.348-0.459-0.854-0.476-1.522 0-0.117 0.009-0.342 0.034-0.677-0.178 0.75-0.581 1.428-1.154 1.943-0.564 0.5-1.123 0.756-1.676 0.767-0.255 0.014-0.51-0.032-0.745-0.133s-0.442-0.257-0.606-0.453c-0.348-0.4-0.531-0.981-0.549-1.744-0.020-0.755 0.1-1.506 0.353-2.218 0.24-0.699 0.642-1.33 1.173-1.843 0.476-0.486 1.121-0.768 1.801-0.788h0.012c0.089 0 0.176 0.028 0.248 0.080s0.127 0.125 0.155 0.209c0.029 0.084 0.030 0.175 0.004 0.26s-0.077 0.16-0.148 0.214c-0.439 0.356-0.799 0.799-1.058 1.301-0.457 0.791-0.697 1.688-0.698 2.601z"></path>
<path fill="#fff" style="fill: var(--color1, #fff)" d="M36.806 11.369c0.491-0.012 0.847 0.131 1.067 0.429 0.221 0.3 0.336 0.71 0.35 1.23-0.005 0.738-0.069 1.475-0.191 2.203-0.117 0.682-0.181 1.372-0.194 2.063 0.011 0.429 0.072 0.741 0.186 0.933 0.136 0.215 0.331 0.387 0.563 0.494-0.108 0.011-0.263 0.018-0.462 0.024-0.7 0.017-1.201-0.079-1.501-0.288s-0.458-0.584-0.474-1.125c0.024-0.609 0.093-1.215 0.205-1.814 0.124-0.665 0.192-1.34 0.203-2.017-0.013-0.551-0.186-0.821-0.521-0.813-0.191 0-0.405 0.123-0.641 0.354-0.271 0.277-0.499 0.593-0.678 0.936-0.245 0.476-0.422 0.983-0.525 1.508-0.136 0.598-0.198 1.211-0.186 1.825 0.009 0.335 0.024 0.623 0.045 0.861 0.006 0.064-0.001 0.128-0.020 0.189s-0.051 0.118-0.093 0.166-0.094 0.088-0.151 0.116c-0.058 0.028-0.121 0.044-0.185 0.046h-0.008c-0.475 0.012-0.819-0.063-1.032-0.224s-0.324-0.434-0.332-0.818c0-0.167 0.072-0.811 0.215-1.933 0.132-0.886 0.198-1.78 0.198-2.676 0-0.212-0.018-0.419-0.038-0.62-0.059-0.6 0.711-0.915 1.067-0.429l0.007 0.011c0.251 0.35 0.388 0.769 0.393 1.2 0.005 0.531-0.032 1.061-0.113 1.586 0.227-0.887 0.653-1.711 1.247-2.408 0.573-0.662 1.106-0.999 1.598-1.011z"></path>
<path fill="#fff" style="fill: var(--color1, #fff)" d="M41.961 11.411c-0.065-0.051-0.137-0.092-0.215-0.12-0.141-0.050-0.291-0.064-0.438-0.042s-0.287 0.080-0.407 0.169-0.215 0.206-0.279 0.341c-0.064 0.135-0.093 0.283-0.086 0.432 0.007 0.788-0.044 1.576-0.15 2.357-0.089 0.632-0.139 1.268-0.15 1.906 0.017 0.65 0.142 1.141 0.374 1.474s0.676 0.573 1.331 0.723c-0.105-0.222-0.165-0.719-0.18-1.49 0.002-0.987 0.082-1.972 0.24-2.946 0.176-1.194 0.262-1.853 0.258-1.978 0.001-0.393-0.099-0.669-0.299-0.827z"></path>
<path fill="#fff" style="fill: var(--color1, #fff)" d="M40.439 6.838c0.641 1.281 1.627 2.383 2.059 2.851 1.285-2.273 0.467-5.474-3.712-4.907-0.19 0.855-0.294 1.728-0.311 2.604 0.027 1.751 0.849 2.596 2.466 2.535 0.242-0.012 0.483-0.042 0.72-0.092-1.005-1.043-1.222-2.991-1.222-2.991z"></path>
<path fill="#fff" style="fill: var(--color1, #fff)" d="M45.562 15.545c0.035 1.393 0.461 2.078 1.277 2.057 0.346-0.018 0.678-0.139 0.954-0.348 0.251-0.179 0.47-0.398 0.648-0.648 0.041-0.059 0.1-0.105 0.168-0.13s0.142-0.028 0.212-0.010c0.070 0.019 0.133 0.058 0.179 0.114s0.075 0.124 0.081 0.196v0.008c-0.279 0.558-0.715 1.022-1.256 1.333-0.464 0.26-0.984 0.406-1.516 0.425-0.327 0.013-0.654-0.045-0.958-0.168s-0.578-0.309-0.804-0.547c-0.492-0.492-0.75-1.218-0.773-2.176-0.030-1.226 0.282-2.282 0.935-3.169s1.554-1.346 2.701-1.375c0.641-0.015 1.129 0.13 1.462 0.434 0.158 0.137 0.285 0.307 0.374 0.496s0.137 0.396 0.141 0.605c0.017 0.408-0.113 0.808-0.366 1.128l-0.017 0.020c-0.45 0.549-1.327 0.101-1.169-0.588 0.044-0.186 0.065-0.376 0.063-0.567-0.013-0.509-0.24-0.759-0.681-0.75-0.518 0.013-0.93 0.403-1.235 1.169-0.309 0.793-0.453 1.641-0.422 2.491z"></path>
<path fill="#fff" style="fill: var(--color1, #fff)" d="M49.711 24.223l-0.027-0.75-0.521 0.567c-0.478 0.52-1.063 0.929-1.715 1.201-0.679 0.279-1.392 0.466-2.12 0.554-1.48 0.194-3.001 0.117-4.53 0.024-1.563-0.102-3.132 0.022-4.659 0.368-0.769 0.181-1.511 0.462-2.206 0.837-0.469 0.29-0.913 0.618-1.328 0.981 8.241 3.879 14.269-0.588 14.269-0.588-3.789 3.678-11.013 3.963-17.371-0.864-1.171-0.878-2.306-1.801-3.451-2.722-0.641-0.512-1.288-1.022-1.951-1.52s-1.323-0.993-2.045-1.444c-0.363-0.232-0.739-0.441-1.127-0.627-0.401-0.197-0.822-0.352-1.256-0.462-0.46-0.121-0.938-0.164-1.412-0.128-0.244 0.023-0.486 0.068-0.722 0.135-0.237 0.072-0.359 0.189-0.6 0.384l0.531 0.9c0.549-0.492 1.27-0.618 2.014-0.486s1.48 0.47 2.17 0.872c0.692 0.423 1.361 0.883 2.005 1.378 0.653 0.489 1.298 0.992 1.939 1.501 1.285 1.017 2.562 2.053 3.902 3.027s3.301 2.453 4.825 3.19c1.523 0.737 2.321 0.973 4.011 1.252s3.693 0.018 5.348-0.458c1.632-0.469 3.104-1.377 4.256-2.625 0.565-0.61 1.017-1.315 1.336-2.083 0.314-0.765 0.463-1.587 0.438-2.413z"></path>
<path fill="#fff" style="fill: var(--color1, #fff)" d="M8.368 4.068c0 0 2.767 1.79 4.394 4.881 0.162-5.044-3.142-7.427-6.51-8.95 0 0-0.162 5.371 2.929 7.974 2.086 1.756 3.133 3.066 3.601 3.733-0.347-1.943-2.299-6.175-4.415-7.64z"></path>
<path fill="#fff" style="fill: var(--color1, #fff)" d="M13.575 11.066c0 0-0.651-3.417 2.116-4.719s5.371-0.162 5.371-0.162c0 0-1.139 4.394-6.51 5.045 0 0 0.977-2.767 3.742-3.58 0 0-3.742 0.651-4.719 3.417z"></path>
<path fill="#fff" style="fill: var(--color1, #fff)" d="M9.945 23.621c2.030-1.816 5.377-1.894 5.393-1.897-0.792-0.248-2.919-0.549-3.441-0.588-1.275-0.099-2.556 0.084-3.752 0.537-1.017 0.395-1.294 0.563-2.356 0.81s-3.010 0.483-3.645-0.405c0.641 2.251 2.925 3.936 5.27 3.873 1.702-0.047 3.265-0.891 4.754-1.717 0.845-0.467 2.030-1.31 2.869-1.859-1.693-0.030-3.469 0.434-5.093 1.245z"></path>
<path fill="#fff" style="fill: var(--color1, #fff)" d="M34.578 23.168l0.284-0.048v-1.996l-0.284-0.049v-0.221h1.959v0.609h-0.3l-0.029-0.339h-0.999v0.873h0.98v0.27h-0.98v0.852l0.284 0.048v0.221h-0.914v-0.221z"></path>
<path fill="#fff" style="fill: var(--color1, #fff)" d="M40.618 22.134c0.012 0.335-0.102 0.662-0.318 0.918-0.101 0.119-0.227 0.214-0.369 0.277s-0.297 0.094-0.453 0.089c-0.152 0.005-0.303-0.026-0.441-0.090s-0.26-0.158-0.355-0.276c-0.207-0.26-0.314-0.586-0.3-0.918v-0.036c-0.013-0.333 0.093-0.659 0.3-0.92 0.095-0.119 0.217-0.213 0.355-0.277s0.289-0.095 0.441-0.091c0.156-0.004 0.311 0.026 0.453 0.090s0.269 0.159 0.369 0.278c0.216 0.257 0.329 0.584 0.318 0.92v0.036zM40.274 22.093c0.011-0.257-0.063-0.511-0.212-0.722-0.067-0.091-0.156-0.164-0.258-0.213s-0.215-0.072-0.327-0.067c-0.109-0.004-0.218 0.020-0.316 0.069s-0.182 0.122-0.244 0.212c-0.141 0.213-0.212 0.465-0.201 0.72v0.041c-0.011 0.257 0.059 0.511 0.201 0.725 0.062 0.090 0.146 0.162 0.244 0.211s0.206 0.072 0.315 0.068c0.113 0.005 0.226-0.017 0.329-0.066s0.192-0.121 0.26-0.212c0.147-0.213 0.221-0.468 0.209-0.726v-0.041z"></path>
<path fill="#fff" style="fill: var(--color1, #fff)" d="M44.787 22.134c0.012 0.335-0.101 0.663-0.318 0.918-0.101 0.119-0.227 0.214-0.369 0.277s-0.297 0.094-0.453 0.089c-0.152 0.004-0.303-0.026-0.441-0.090s-0.26-0.158-0.356-0.276c-0.207-0.26-0.314-0.586-0.3-0.918v-0.036c-0.013-0.333 0.093-0.659 0.3-0.92 0.096-0.118 0.217-0.213 0.355-0.277s0.289-0.095 0.441-0.091c0.156-0.005 0.311 0.026 0.453 0.090s0.269 0.159 0.369 0.278c0.217 0.256 0.33 0.584 0.318 0.92v0.036zM44.444 22.093c0.011-0.257-0.063-0.511-0.211-0.722-0.068-0.091-0.157-0.164-0.259-0.212s-0.215-0.072-0.328-0.067c-0.109-0.004-0.217 0.020-0.315 0.069s-0.181 0.122-0.243 0.212c-0.142 0.213-0.212 0.465-0.201 0.72v0.041c-0.013 0.257 0.058 0.511 0.201 0.725 0.062 0.090 0.146 0.162 0.243 0.211s0.206 0.072 0.315 0.068c0.113 0.005 0.227-0.017 0.329-0.066s0.192-0.121 0.26-0.212c0.147-0.213 0.22-0.468 0.209-0.726v-0.041z"></path>
<path fill="#fff" style="fill: var(--color1, #fff)" d="M47.759 20.854c0.146-0.008 0.293 0.014 0.429 0.066s0.261 0.132 0.365 0.235 0.185 0.227 0.238 0.364c0.053 0.137 0.076 0.283 0.069 0.429v0.347c0.007 0.146-0.016 0.292-0.069 0.429s-0.134 0.261-0.238 0.364c-0.104 0.103-0.228 0.183-0.365 0.235s-0.283 0.074-0.429 0.066h-1.061v-0.221l0.284-0.048v-1.996l-0.284-0.049v-0.221h1.061zM47.324 21.124v1.996h0.435c0.104 0.005 0.208-0.013 0.304-0.053s0.182-0.101 0.252-0.178c0.14-0.168 0.213-0.382 0.203-0.6v-0.35c0.008-0.215-0.064-0.425-0.203-0.59-0.070-0.078-0.155-0.138-0.252-0.178s-0.2-0.058-0.304-0.053l-0.435 0.006z"></path>
<path fill="#fff" style="fill: var(--color1, #fff)" d="M6.197 9.93c0.985 0.122 1.9 0.571 2.601 1.274-1.666-4.287-5.503-3.776-7.653-0.674-2.206 3.181-1.273 9.275 3.237 9.166 0.635-0.009 1.26-0.153 1.835-0.422 0.528-0.242 0.999-0.592 1.382-1.028 0.375-0.439 0.679-0.934 0.9-1.468 0.3-0.69 0.495-1.422 0.579-2.17 0.27-3.529-2.881-4.679-2.881-4.679zM6.995 16.082c-0.17 0.706-0.493 1.365-0.947 1.931-0.434 0.524-0.943 0.793-1.526 0.807-0.7 0.017-1.232-0.304-1.594-0.962s-0.556-1.509-0.582-2.551c-0.016-0.77 0.107-1.536 0.365-2.261 0.231-0.699 0.612-1.338 1.118-1.873 0.483-0.5 1.002-0.757 1.556-0.77s0.998 0.237 1.333 0.75c0.335 0.516 0.517 1.358 0.545 2.526 0.023 0.808-0.066 1.615-0.266 2.398l-0.002 0.005z"></path>
</symbol>

<symbol id="icon-btn" viewBox="0 0 108 32">
<path fill="#fff" style="fill: var(--color1, #fff); stroke: var(--color1, #fff)" opacity="0.2" stroke="#fff" stroke-linejoin="miter" stroke-linecap="butt" stroke-miterlimit="4" stroke-width="0.6154" d="M0.615 0.615h76.308c16.993 0 30.769 13.776 30.769 30.769v0h-76.308c-16.993 0-30.769-13.776-30.769-30.769v0z"></path>
</symbol>




<symbol id="icon-search" viewBox="0 0 32 32">
<path d="M19.427 20.427c-1.39 0.99-3.090 1.573-4.927 1.573-4.694 0-8.5-3.806-8.5-8.5s3.806-8.5 8.5-8.5c4.694 0 8.5 3.806 8.5 8.5 0 1.837-0.583 3.537-1.573 4.927l5.585 5.585c0.55 0.55 0.546 1.431-0 1.976l-0.023 0.023c-0.544 0.544-1.431 0.546-1.976 0l-5.585-5.585zM14.5 20c3.59 0 6.5-2.91 6.5-6.5s-2.91-6.5-6.5-6.5c-3.59 0-6.5 2.91-6.5 6.5s2.91 6.5 6.5 6.5v0z"></path>
</symbol>


<symbol id="icon-menu" viewBox="0 0 32 32"><path fill="#fff" stroke="#fafafa" stroke-linecap="round" stroke-linejoin="round" stroke-width="2.286" d="M4.001 11.336h24.006M4.001 20.671h24.006" style="stroke:var(--color1, #fafafa)"/></symbol>


</defs>
</svg>

